<mxfile host="65bd71144e">
    <diagram id="R2lEEEUBdFMjLlhIrx00" name="Page-1">
        <mxGraphModel dx="1409" dy="776" grid="0" gridSize="10" guides="1" tooltips="1" connect="1" arrows="0" fold="1" page="0" pageScale="1" pageWidth="1169" pageHeight="827" math="0" shadow="0" extFonts="Permanent Marker^https://fonts.googleapis.com/css?family=Permanent+Marker">
            <root>
                <mxCell id="0"/>
                <mxCell id="1" parent="0"/>
                <mxCell id="YdTmAqoiLgCzOXmf9878-1" value="Departments" style="shape=table;startSize=30;container=1;collapsible=1;childLayout=tableLayout;fixedRows=1;rowLines=0;fontStyle=1;align=center;resizeLast=1;fontSize=12;spacing=2;horizontal=1;fontFamily=Times New Roman;" parent="1" vertex="1">
                    <mxGeometry x="361" y="241" width="285" height="90" as="geometry"/>
                </mxCell>
                <mxCell id="YdTmAqoiLgCzOXmf9878-2" value="" style="shape=partialRectangle;collapsible=0;dropTarget=0;pointerEvents=0;fillColor=none;points=[[0,0.5],[1,0.5]];portConstraint=eastwest;top=0;left=0;right=0;bottom=1;fontSize=12;spacing=2;horizontal=1;fontFamily=Times New Roman;" parent="YdTmAqoiLgCzOXmf9878-1" vertex="1">
                    <mxGeometry y="30" width="285" height="30" as="geometry"/>
                </mxCell>
                <mxCell id="YdTmAqoiLgCzOXmf9878-3" value="PK" style="shape=partialRectangle;overflow=hidden;connectable=0;fillColor=none;top=0;left=0;bottom=0;right=0;fontStyle=1;fontSize=12;spacing=2;horizontal=1;fontFamily=Times New Roman;" parent="YdTmAqoiLgCzOXmf9878-2" vertex="1">
                    <mxGeometry width="30" height="30" as="geometry">
                        <mxRectangle width="30" height="30" as="alternateBounds"/>
                    </mxGeometry>
                </mxCell>
                <mxCell id="YdTmAqoiLgCzOXmf9878-4" value="DepartmentNumber NUMBER" style="shape=partialRectangle;overflow=hidden;connectable=0;fillColor=none;top=0;left=0;bottom=0;right=0;align=left;spacingLeft=6;fontStyle=5;fontSize=12;spacing=2;horizontal=1;fontFamily=Times New Roman;" parent="YdTmAqoiLgCzOXmf9878-2" vertex="1">
                    <mxGeometry x="30" width="255" height="30" as="geometry">
                        <mxRectangle width="255" height="30" as="alternateBounds"/>
                    </mxGeometry>
                </mxCell>
                <mxCell id="YdTmAqoiLgCzOXmf9878-8" value="" style="shape=partialRectangle;collapsible=0;dropTarget=0;pointerEvents=0;fillColor=none;points=[[0,0.5],[1,0.5]];portConstraint=eastwest;top=0;left=0;right=0;bottom=0;fontSize=12;spacing=2;horizontal=1;fontFamily=Times New Roman;" parent="YdTmAqoiLgCzOXmf9878-1" vertex="1">
                    <mxGeometry y="60" width="285" height="30" as="geometry"/>
                </mxCell>
                <mxCell id="YdTmAqoiLgCzOXmf9878-9" value="" style="shape=partialRectangle;overflow=hidden;connectable=0;fillColor=none;top=0;left=0;bottom=0;right=0;fontSize=12;spacing=2;horizontal=1;fontFamily=Times New Roman;" parent="YdTmAqoiLgCzOXmf9878-8" vertex="1">
                    <mxGeometry width="30" height="30" as="geometry">
                        <mxRectangle width="30" height="30" as="alternateBounds"/>
                    </mxGeometry>
                </mxCell>
                <mxCell id="YdTmAqoiLgCzOXmf9878-10" value="DepartmentName VARCHAR2 (30) NOT NULL" style="shape=partialRectangle;overflow=hidden;connectable=0;fillColor=none;top=0;left=0;bottom=0;right=0;align=left;spacingLeft=6;fontSize=12;spacing=2;horizontal=1;fontFamily=Times New Roman;" parent="YdTmAqoiLgCzOXmf9878-8" vertex="1">
                    <mxGeometry x="30" width="255" height="30" as="geometry">
                        <mxRectangle width="255" height="30" as="alternateBounds"/>
                    </mxGeometry>
                </mxCell>
                <mxCell id="YdTmAqoiLgCzOXmf9878-17" value="Locations" style="shape=table;startSize=30;container=1;collapsible=1;childLayout=tableLayout;fixedRows=1;rowLines=0;fontStyle=1;align=center;resizeLast=1;fontSize=12;spacing=2;horizontal=1;fontFamily=Times New Roman;" parent="1" vertex="1">
                    <mxGeometry x="50" y="31" width="273" height="180" as="geometry"/>
                </mxCell>
                <mxCell id="YdTmAqoiLgCzOXmf9878-18" value="" style="shape=partialRectangle;collapsible=0;dropTarget=0;pointerEvents=0;fillColor=none;points=[[0,0.5],[1,0.5]];portConstraint=eastwest;top=0;left=0;right=0;bottom=1;fontSize=12;spacing=2;horizontal=1;fontFamily=Times New Roman;" parent="YdTmAqoiLgCzOXmf9878-17" vertex="1">
                    <mxGeometry y="30" width="273" height="30" as="geometry"/>
                </mxCell>
                <mxCell id="YdTmAqoiLgCzOXmf9878-19" value="PK" style="shape=partialRectangle;overflow=hidden;connectable=0;fillColor=none;top=0;left=0;bottom=0;right=0;fontStyle=1;fontSize=12;spacing=2;horizontal=1;fontFamily=Times New Roman;" parent="YdTmAqoiLgCzOXmf9878-18" vertex="1">
                    <mxGeometry width="30" height="30" as="geometry">
                        <mxRectangle width="30" height="30" as="alternateBounds"/>
                    </mxGeometry>
                </mxCell>
                <mxCell id="YdTmAqoiLgCzOXmf9878-20" value="LocationCode NUMBER" style="shape=partialRectangle;overflow=hidden;connectable=0;fillColor=none;top=0;left=0;bottom=0;right=0;align=left;spacingLeft=6;fontStyle=5;fontSize=12;spacing=2;horizontal=1;fontFamily=Times New Roman;" parent="YdTmAqoiLgCzOXmf9878-18" vertex="1">
                    <mxGeometry x="30" width="243" height="30" as="geometry">
                        <mxRectangle width="243" height="30" as="alternateBounds"/>
                    </mxGeometry>
                </mxCell>
                <mxCell id="YdTmAqoiLgCzOXmf9878-21" value="" style="shape=partialRectangle;collapsible=0;dropTarget=0;pointerEvents=0;fillColor=none;points=[[0,0.5],[1,0.5]];portConstraint=eastwest;top=0;left=0;right=0;bottom=0;fontSize=12;spacing=2;horizontal=1;fontFamily=Times New Roman;" parent="YdTmAqoiLgCzOXmf9878-17" vertex="1">
                    <mxGeometry y="60" width="273" height="30" as="geometry"/>
                </mxCell>
                <mxCell id="YdTmAqoiLgCzOXmf9878-22" value="FK" style="shape=partialRectangle;overflow=hidden;connectable=0;fillColor=none;top=0;left=0;bottom=0;right=0;fontSize=12;spacing=2;horizontal=1;fontFamily=Times New Roman;" parent="YdTmAqoiLgCzOXmf9878-21" vertex="1">
                    <mxGeometry width="30" height="30" as="geometry">
                        <mxRectangle width="30" height="30" as="alternateBounds"/>
                    </mxGeometry>
                </mxCell>
                <mxCell id="YdTmAqoiLgCzOXmf9878-23" value="DepartmentNumber NUMBER" style="shape=partialRectangle;overflow=hidden;connectable=0;fillColor=none;top=0;left=0;bottom=0;right=0;align=left;spacingLeft=6;fontSize=12;spacing=2;horizontal=1;fontFamily=Times New Roman;" parent="YdTmAqoiLgCzOXmf9878-21" vertex="1">
                    <mxGeometry x="30" width="243" height="30" as="geometry">
                        <mxRectangle width="243" height="30" as="alternateBounds"/>
                    </mxGeometry>
                </mxCell>
                <mxCell id="5" value="" style="shape=partialRectangle;collapsible=0;dropTarget=0;pointerEvents=0;fillColor=none;points=[[0,0.5],[1,0.5]];portConstraint=eastwest;top=0;left=0;right=0;bottom=0;fontSize=12;spacing=2;horizontal=1;fontFamily=Times New Roman;" vertex="1" parent="YdTmAqoiLgCzOXmf9878-17">
                    <mxGeometry y="90" width="273" height="30" as="geometry"/>
                </mxCell>
                <mxCell id="6" value="" style="shape=partialRectangle;overflow=hidden;connectable=0;fillColor=none;top=0;left=0;bottom=0;right=0;fontSize=12;spacing=2;horizontal=1;fontFamily=Times New Roman;" vertex="1" parent="5">
                    <mxGeometry width="30" height="30" as="geometry">
                        <mxRectangle width="30" height="30" as="alternateBounds"/>
                    </mxGeometry>
                </mxCell>
                <mxCell id="7" value="StreetAddress VARCHAR2(100) NOT NULL" style="shape=partialRectangle;overflow=hidden;connectable=0;fillColor=none;top=0;left=0;bottom=0;right=0;align=left;spacingLeft=6;fontSize=12;spacing=2;horizontal=1;fontFamily=Times New Roman;" vertex="1" parent="5">
                    <mxGeometry x="30" width="243" height="30" as="geometry">
                        <mxRectangle width="243" height="30" as="alternateBounds"/>
                    </mxGeometry>
                </mxCell>
                <mxCell id="8" value="" style="shape=partialRectangle;collapsible=0;dropTarget=0;pointerEvents=0;fillColor=none;points=[[0,0.5],[1,0.5]];portConstraint=eastwest;top=0;left=0;right=0;bottom=0;fontSize=12;spacing=2;horizontal=1;fontFamily=Times New Roman;" vertex="1" parent="YdTmAqoiLgCzOXmf9878-17">
                    <mxGeometry y="120" width="273" height="30" as="geometry"/>
                </mxCell>
                <mxCell id="9" value="" style="shape=partialRectangle;overflow=hidden;connectable=0;fillColor=none;top=0;left=0;bottom=0;right=0;fontSize=12;spacing=2;horizontal=1;fontFamily=Times New Roman;" vertex="1" parent="8">
                    <mxGeometry width="30" height="30" as="geometry">
                        <mxRectangle width="30" height="30" as="alternateBounds"/>
                    </mxGeometry>
                </mxCell>
                <mxCell id="10" value="City VARCHAR2(50) NOT NULL" style="shape=partialRectangle;overflow=hidden;connectable=0;fillColor=none;top=0;left=0;bottom=0;right=0;align=left;spacingLeft=6;fontSize=12;spacing=2;horizontal=1;fontFamily=Times New Roman;" vertex="1" parent="8">
                    <mxGeometry x="30" width="243" height="30" as="geometry">
                        <mxRectangle width="243" height="30" as="alternateBounds"/>
                    </mxGeometry>
                </mxCell>
                <mxCell id="11" value="" style="shape=partialRectangle;collapsible=0;dropTarget=0;pointerEvents=0;fillColor=none;points=[[0,0.5],[1,0.5]];portConstraint=eastwest;top=0;left=0;right=0;bottom=0;fontSize=12;spacing=2;horizontal=1;fontFamily=Times New Roman;" vertex="1" parent="YdTmAqoiLgCzOXmf9878-17">
                    <mxGeometry y="150" width="273" height="30" as="geometry"/>
                </mxCell>
                <mxCell id="12" value="" style="shape=partialRectangle;overflow=hidden;connectable=0;fillColor=none;top=0;left=0;bottom=0;right=0;fontSize=12;spacing=2;horizontal=1;fontFamily=Times New Roman;" vertex="1" parent="11">
                    <mxGeometry width="30" height="30" as="geometry">
                        <mxRectangle width="30" height="30" as="alternateBounds"/>
                    </mxGeometry>
                </mxCell>
                <mxCell id="13" value="ZipCode VARCHAR2(10) NOT NULL" style="shape=partialRectangle;overflow=hidden;connectable=0;fillColor=none;top=0;left=0;bottom=0;right=0;align=left;spacingLeft=6;fontSize=12;spacing=2;horizontal=1;fontFamily=Times New Roman;" vertex="1" parent="11">
                    <mxGeometry x="30" width="243" height="30" as="geometry">
                        <mxRectangle width="243" height="30" as="alternateBounds"/>
                    </mxGeometry>
                </mxCell>
                <mxCell id="YdTmAqoiLgCzOXmf9878-34" value="DepartmentManagers" style="shape=table;startSize=30;container=1;collapsible=1;childLayout=tableLayout;fixedRows=1;rowLines=0;fontStyle=1;align=center;resizeLast=1;fontSize=12;spacing=2;horizontal=1;fontFamily=Times New Roman;" parent="1" vertex="1">
                    <mxGeometry x="360" y="31" width="264" height="180" as="geometry"/>
                </mxCell>
                <mxCell id="YdTmAqoiLgCzOXmf9878-35" value="" style="shape=partialRectangle;collapsible=0;dropTarget=0;pointerEvents=0;fillColor=none;points=[[0,0.5],[1,0.5]];portConstraint=eastwest;top=0;left=0;right=0;bottom=1;fontSize=12;spacing=2;horizontal=1;fontFamily=Times New Roman;" parent="YdTmAqoiLgCzOXmf9878-34" vertex="1">
                    <mxGeometry y="30" width="264" height="30" as="geometry"/>
                </mxCell>
                <mxCell id="YdTmAqoiLgCzOXmf9878-36" value="PK" style="shape=partialRectangle;overflow=hidden;connectable=0;fillColor=none;top=0;left=0;bottom=0;right=0;fontStyle=1;fontSize=12;spacing=2;horizontal=1;fontFamily=Times New Roman;" parent="YdTmAqoiLgCzOXmf9878-35" vertex="1">
                    <mxGeometry width="30" height="30" as="geometry">
                        <mxRectangle width="30" height="30" as="alternateBounds"/>
                    </mxGeometry>
                </mxCell>
                <mxCell id="YdTmAqoiLgCzOXmf9878-37" value="ManagerID NUMBER" style="shape=partialRectangle;overflow=hidden;connectable=0;fillColor=none;top=0;left=0;bottom=0;right=0;align=left;spacingLeft=6;fontStyle=5;fontSize=12;spacing=2;horizontal=1;fontFamily=Times New Roman;" parent="YdTmAqoiLgCzOXmf9878-35" vertex="1">
                    <mxGeometry x="30" width="234" height="30" as="geometry">
                        <mxRectangle width="234" height="30" as="alternateBounds"/>
                    </mxGeometry>
                </mxCell>
                <mxCell id="YdTmAqoiLgCzOXmf9878-38" value="" style="shape=partialRectangle;collapsible=0;dropTarget=0;pointerEvents=0;fillColor=none;points=[[0,0.5],[1,0.5]];portConstraint=eastwest;top=0;left=0;right=0;bottom=0;fontSize=12;spacing=2;horizontal=1;fontFamily=Times New Roman;" parent="YdTmAqoiLgCzOXmf9878-34" vertex="1">
                    <mxGeometry y="60" width="264" height="30" as="geometry"/>
                </mxCell>
                <mxCell id="YdTmAqoiLgCzOXmf9878-39" value="FK" style="shape=partialRectangle;overflow=hidden;connectable=0;fillColor=none;top=0;left=0;bottom=0;right=0;fontSize=12;spacing=2;horizontal=1;fontFamily=Times New Roman;" parent="YdTmAqoiLgCzOXmf9878-38" vertex="1">
                    <mxGeometry width="30" height="30" as="geometry">
                        <mxRectangle width="30" height="30" as="alternateBounds"/>
                    </mxGeometry>
                </mxCell>
                <mxCell id="YdTmAqoiLgCzOXmf9878-40" value="EmployeeID NUMBER NOT NULL" style="shape=partialRectangle;overflow=hidden;connectable=0;fillColor=none;top=0;left=0;bottom=0;right=0;align=left;spacingLeft=6;fontSize=12;spacing=2;horizontal=1;fontFamily=Times New Roman;" parent="YdTmAqoiLgCzOXmf9878-38" vertex="1">
                    <mxGeometry x="30" width="234" height="30" as="geometry">
                        <mxRectangle width="234" height="30" as="alternateBounds"/>
                    </mxGeometry>
                </mxCell>
                <mxCell id="YdTmAqoiLgCzOXmf9878-132" value="" style="shape=partialRectangle;collapsible=0;dropTarget=0;pointerEvents=0;fillColor=none;points=[[0,0.5],[1,0.5]];portConstraint=eastwest;top=0;left=0;right=0;bottom=0;fontSize=12;spacing=2;horizontal=1;fontFamily=Times New Roman;" parent="YdTmAqoiLgCzOXmf9878-34" vertex="1">
                    <mxGeometry y="90" width="264" height="30" as="geometry"/>
                </mxCell>
                <mxCell id="YdTmAqoiLgCzOXmf9878-133" value="FK" style="shape=partialRectangle;overflow=hidden;connectable=0;fillColor=none;top=0;left=0;bottom=0;right=0;fontSize=12;spacing=2;horizontal=1;fontFamily=Times New Roman;" parent="YdTmAqoiLgCzOXmf9878-132" vertex="1">
                    <mxGeometry width="30" height="30" as="geometry">
                        <mxRectangle width="30" height="30" as="alternateBounds"/>
                    </mxGeometry>
                </mxCell>
                <mxCell id="YdTmAqoiLgCzOXmf9878-134" value="DepartmentNumber NUMBER NOT NULL" style="shape=partialRectangle;overflow=hidden;connectable=0;fillColor=none;top=0;left=0;bottom=0;right=0;align=left;spacingLeft=6;fontSize=12;spacing=2;horizontal=1;fontFamily=Times New Roman;" parent="YdTmAqoiLgCzOXmf9878-132" vertex="1">
                    <mxGeometry x="30" width="234" height="30" as="geometry">
                        <mxRectangle width="234" height="30" as="alternateBounds"/>
                    </mxGeometry>
                </mxCell>
                <mxCell id="YdTmAqoiLgCzOXmf9878-41" value="" style="shape=partialRectangle;collapsible=0;dropTarget=0;pointerEvents=0;fillColor=none;points=[[0,0.5],[1,0.5]];portConstraint=eastwest;top=0;left=0;right=0;bottom=0;fontSize=12;spacing=2;horizontal=1;fontFamily=Times New Roman;" parent="YdTmAqoiLgCzOXmf9878-34" vertex="1">
                    <mxGeometry y="120" width="264" height="30" as="geometry"/>
                </mxCell>
                <mxCell id="YdTmAqoiLgCzOXmf9878-42" value="" style="shape=partialRectangle;overflow=hidden;connectable=0;fillColor=none;top=0;left=0;bottom=0;right=0;fontSize=12;spacing=2;horizontal=1;fontFamily=Times New Roman;" parent="YdTmAqoiLgCzOXmf9878-41" vertex="1">
                    <mxGeometry width="30" height="30" as="geometry">
                        <mxRectangle width="30" height="30" as="alternateBounds"/>
                    </mxGeometry>
                </mxCell>
                <mxCell id="YdTmAqoiLgCzOXmf9878-43" value="StartDate DATE NOT NULL" style="shape=partialRectangle;overflow=hidden;connectable=0;fillColor=none;top=0;left=0;bottom=0;right=0;align=left;spacingLeft=6;fontSize=12;spacing=2;horizontal=1;fontFamily=Times New Roman;" parent="YdTmAqoiLgCzOXmf9878-41" vertex="1">
                    <mxGeometry x="30" width="234" height="30" as="geometry">
                        <mxRectangle width="234" height="30" as="alternateBounds"/>
                    </mxGeometry>
                </mxCell>
                <mxCell id="YdTmAqoiLgCzOXmf9878-44" value="" style="shape=partialRectangle;collapsible=0;dropTarget=0;pointerEvents=0;fillColor=none;points=[[0,0.5],[1,0.5]];portConstraint=eastwest;top=0;left=0;right=0;bottom=0;fontSize=12;spacing=2;horizontal=1;fontFamily=Times New Roman;" parent="YdTmAqoiLgCzOXmf9878-34" vertex="1">
                    <mxGeometry y="150" width="264" height="30" as="geometry"/>
                </mxCell>
                <mxCell id="YdTmAqoiLgCzOXmf9878-45" value="" style="shape=partialRectangle;overflow=hidden;connectable=0;fillColor=none;top=0;left=0;bottom=0;right=0;fontSize=12;spacing=2;horizontal=1;fontFamily=Times New Roman;" parent="YdTmAqoiLgCzOXmf9878-44" vertex="1">
                    <mxGeometry width="30" height="30" as="geometry">
                        <mxRectangle width="30" height="30" as="alternateBounds"/>
                    </mxGeometry>
                </mxCell>
                <mxCell id="YdTmAqoiLgCzOXmf9878-46" value="EndDate DATE" style="shape=partialRectangle;overflow=hidden;connectable=0;fillColor=none;top=0;left=0;bottom=0;right=0;align=left;spacingLeft=6;fontSize=12;spacing=2;horizontal=1;fontFamily=Times New Roman;" parent="YdTmAqoiLgCzOXmf9878-44" vertex="1">
                    <mxGeometry x="30" width="234" height="30" as="geometry">
                        <mxRectangle width="234" height="30" as="alternateBounds"/>
                    </mxGeometry>
                </mxCell>
                <mxCell id="YdTmAqoiLgCzOXmf9878-47" value="Projects" style="shape=table;startSize=30;container=1;collapsible=1;childLayout=tableLayout;fixedRows=1;rowLines=0;fontStyle=1;align=center;resizeLast=1;fontSize=12;spacing=2;horizontal=1;fontFamily=Times New Roman;" parent="1" vertex="1">
                    <mxGeometry x="48" y="265" width="275" height="210" as="geometry"/>
                </mxCell>
                <mxCell id="YdTmAqoiLgCzOXmf9878-48" value="" style="shape=partialRectangle;collapsible=0;dropTarget=0;pointerEvents=0;fillColor=none;points=[[0,0.5],[1,0.5]];portConstraint=eastwest;top=0;left=0;right=0;bottom=1;fontSize=12;spacing=2;horizontal=1;fontFamily=Times New Roman;" parent="YdTmAqoiLgCzOXmf9878-47" vertex="1">
                    <mxGeometry y="30" width="275" height="30" as="geometry"/>
                </mxCell>
                <mxCell id="YdTmAqoiLgCzOXmf9878-49" value="PK" style="shape=partialRectangle;overflow=hidden;connectable=0;fillColor=none;top=0;left=0;bottom=0;right=0;fontStyle=1;fontSize=12;spacing=2;horizontal=1;fontFamily=Times New Roman;" parent="YdTmAqoiLgCzOXmf9878-48" vertex="1">
                    <mxGeometry width="30" height="30" as="geometry">
                        <mxRectangle width="30" height="30" as="alternateBounds"/>
                    </mxGeometry>
                </mxCell>
                <mxCell id="YdTmAqoiLgCzOXmf9878-50" value="ProjectNumber NUMBER" style="shape=partialRectangle;overflow=hidden;connectable=0;fillColor=none;top=0;left=0;bottom=0;right=0;align=left;spacingLeft=6;fontStyle=5;fontSize=12;spacing=2;horizontal=1;fontFamily=Times New Roman;" parent="YdTmAqoiLgCzOXmf9878-48" vertex="1">
                    <mxGeometry x="30" width="245" height="30" as="geometry">
                        <mxRectangle width="245" height="30" as="alternateBounds"/>
                    </mxGeometry>
                </mxCell>
                <mxCell id="YdTmAqoiLgCzOXmf9878-51" value="" style="shape=partialRectangle;collapsible=0;dropTarget=0;pointerEvents=0;fillColor=none;points=[[0,0.5],[1,0.5]];portConstraint=eastwest;top=0;left=0;right=0;bottom=0;fontSize=12;spacing=2;horizontal=1;fontFamily=Times New Roman;" parent="YdTmAqoiLgCzOXmf9878-47" vertex="1">
                    <mxGeometry y="60" width="275" height="30" as="geometry"/>
                </mxCell>
                <mxCell id="YdTmAqoiLgCzOXmf9878-52" value="FK" style="shape=partialRectangle;overflow=hidden;connectable=0;fillColor=none;top=0;left=0;bottom=0;right=0;fontSize=12;spacing=2;horizontal=1;fontFamily=Times New Roman;" parent="YdTmAqoiLgCzOXmf9878-51" vertex="1">
                    <mxGeometry width="30" height="30" as="geometry">
                        <mxRectangle width="30" height="30" as="alternateBounds"/>
                    </mxGeometry>
                </mxCell>
                <mxCell id="YdTmAqoiLgCzOXmf9878-53" value="DepartmentNumber NUMBER NOT NULL" style="shape=partialRectangle;overflow=hidden;connectable=0;fillColor=none;top=0;left=0;bottom=0;right=0;align=left;spacingLeft=6;fontSize=12;spacing=2;horizontal=1;fontFamily=Times New Roman;" parent="YdTmAqoiLgCzOXmf9878-51" vertex="1">
                    <mxGeometry x="30" width="245" height="30" as="geometry">
                        <mxRectangle width="245" height="30" as="alternateBounds"/>
                    </mxGeometry>
                </mxCell>
                <mxCell id="YdTmAqoiLgCzOXmf9878-66" value="" style="shape=partialRectangle;collapsible=0;dropTarget=0;pointerEvents=0;fillColor=none;points=[[0,0.5],[1,0.5]];portConstraint=eastwest;top=0;left=0;right=0;bottom=0;fontSize=12;spacing=2;horizontal=1;fontFamily=Times New Roman;" parent="YdTmAqoiLgCzOXmf9878-47" vertex="1">
                    <mxGeometry y="90" width="275" height="30" as="geometry"/>
                </mxCell>
                <mxCell id="YdTmAqoiLgCzOXmf9878-67" value="FK" style="shape=partialRectangle;overflow=hidden;connectable=0;fillColor=none;top=0;left=0;bottom=0;right=0;fontSize=12;spacing=2;horizontal=1;fontFamily=Times New Roman;" parent="YdTmAqoiLgCzOXmf9878-66" vertex="1">
                    <mxGeometry width="30" height="30" as="geometry">
                        <mxRectangle width="30" height="30" as="alternateBounds"/>
                    </mxGeometry>
                </mxCell>
                <mxCell id="YdTmAqoiLgCzOXmf9878-68" value="LocationCode NUMBER NOT NULL" style="shape=partialRectangle;overflow=hidden;connectable=0;fillColor=none;top=0;left=0;bottom=0;right=0;align=left;spacingLeft=6;fontSize=12;spacing=2;horizontal=1;fontFamily=Times New Roman;" parent="YdTmAqoiLgCzOXmf9878-66" vertex="1">
                    <mxGeometry x="30" width="245" height="30" as="geometry">
                        <mxRectangle width="245" height="30" as="alternateBounds"/>
                    </mxGeometry>
                </mxCell>
                <mxCell id="YdTmAqoiLgCzOXmf9878-57" value="" style="shape=partialRectangle;collapsible=0;dropTarget=0;pointerEvents=0;fillColor=none;points=[[0,0.5],[1,0.5]];portConstraint=eastwest;top=0;left=0;right=0;bottom=0;fontSize=12;spacing=2;horizontal=1;fontFamily=Times New Roman;" parent="YdTmAqoiLgCzOXmf9878-47" vertex="1">
                    <mxGeometry y="120" width="275" height="30" as="geometry"/>
                </mxCell>
                <mxCell id="YdTmAqoiLgCzOXmf9878-58" value="" style="shape=partialRectangle;overflow=hidden;connectable=0;fillColor=none;top=0;left=0;bottom=0;right=0;fontSize=12;spacing=2;horizontal=1;fontFamily=Times New Roman;" parent="YdTmAqoiLgCzOXmf9878-57" vertex="1">
                    <mxGeometry width="30" height="30" as="geometry">
                        <mxRectangle width="30" height="30" as="alternateBounds"/>
                    </mxGeometry>
                </mxCell>
                <mxCell id="YdTmAqoiLgCzOXmf9878-59" value="ProjectName VARCHAR2(50) NOT NULL" style="shape=partialRectangle;overflow=hidden;connectable=0;fillColor=none;top=0;left=0;bottom=0;right=0;align=left;spacingLeft=6;fontSize=12;spacing=2;horizontal=1;fontFamily=Times New Roman;" parent="YdTmAqoiLgCzOXmf9878-57" vertex="1">
                    <mxGeometry x="30" width="245" height="30" as="geometry">
                        <mxRectangle width="245" height="30" as="alternateBounds"/>
                    </mxGeometry>
                </mxCell>
                <mxCell id="26" value="" style="shape=partialRectangle;collapsible=0;dropTarget=0;pointerEvents=0;fillColor=none;points=[[0,0.5],[1,0.5]];portConstraint=eastwest;top=0;left=0;right=0;bottom=0;fontSize=12;spacing=2;horizontal=1;fontFamily=Times New Roman;" vertex="1" parent="YdTmAqoiLgCzOXmf9878-47">
                    <mxGeometry y="150" width="275" height="30" as="geometry"/>
                </mxCell>
                <mxCell id="27" value="" style="shape=partialRectangle;overflow=hidden;connectable=0;fillColor=none;top=0;left=0;bottom=0;right=0;fontSize=12;spacing=2;horizontal=1;fontFamily=Times New Roman;" vertex="1" parent="26">
                    <mxGeometry width="30" height="30" as="geometry">
                        <mxRectangle width="30" height="30" as="alternateBounds"/>
                    </mxGeometry>
                </mxCell>
                <mxCell id="28" value="StartDate DATE NOT NULL" style="shape=partialRectangle;overflow=hidden;connectable=0;fillColor=none;top=0;left=0;bottom=0;right=0;align=left;spacingLeft=6;fontSize=12;spacing=2;horizontal=1;fontFamily=Times New Roman;" vertex="1" parent="26">
                    <mxGeometry x="30" width="245" height="30" as="geometry">
                        <mxRectangle width="245" height="30" as="alternateBounds"/>
                    </mxGeometry>
                </mxCell>
                <mxCell id="29" value="" style="shape=partialRectangle;collapsible=0;dropTarget=0;pointerEvents=0;fillColor=none;points=[[0,0.5],[1,0.5]];portConstraint=eastwest;top=0;left=0;right=0;bottom=0;fontSize=12;spacing=2;horizontal=1;fontFamily=Times New Roman;" vertex="1" parent="YdTmAqoiLgCzOXmf9878-47">
                    <mxGeometry y="180" width="275" height="30" as="geometry"/>
                </mxCell>
                <mxCell id="30" value="" style="shape=partialRectangle;overflow=hidden;connectable=0;fillColor=none;top=0;left=0;bottom=0;right=0;fontSize=12;spacing=2;horizontal=1;fontFamily=Times New Roman;" vertex="1" parent="29">
                    <mxGeometry width="30" height="30" as="geometry">
                        <mxRectangle width="30" height="30" as="alternateBounds"/>
                    </mxGeometry>
                </mxCell>
                <mxCell id="31" value="EndDate DATE" style="shape=partialRectangle;overflow=hidden;connectable=0;fillColor=none;top=0;left=0;bottom=0;right=0;align=left;spacingLeft=6;fontSize=12;spacing=2;horizontal=1;fontFamily=Times New Roman;" vertex="1" parent="29">
                    <mxGeometry x="30" width="245" height="30" as="geometry">
                        <mxRectangle width="245" height="30" as="alternateBounds"/>
                    </mxGeometry>
                </mxCell>
                <mxCell id="YdTmAqoiLgCzOXmf9878-73" value="Employees" style="shape=table;startSize=30;container=1;collapsible=1;childLayout=tableLayout;fixedRows=1;rowLines=0;fontStyle=1;align=center;resizeLast=1;fontSize=12;spacing=2;horizontal=1;fontFamily=Times New Roman;" parent="1" vertex="1">
                    <mxGeometry x="683" y="31" width="272" height="480" as="geometry"/>
                </mxCell>
                <mxCell id="YdTmAqoiLgCzOXmf9878-74" value="" style="shape=partialRectangle;collapsible=0;dropTarget=0;pointerEvents=0;fillColor=none;points=[[0,0.5],[1,0.5]];portConstraint=eastwest;top=0;left=0;right=0;bottom=1;fontSize=12;spacing=2;horizontal=1;fontFamily=Times New Roman;" parent="YdTmAqoiLgCzOXmf9878-73" vertex="1">
                    <mxGeometry y="30" width="272" height="30" as="geometry"/>
                </mxCell>
                <mxCell id="YdTmAqoiLgCzOXmf9878-75" value="PK" style="shape=partialRectangle;overflow=hidden;connectable=0;fillColor=none;top=0;left=0;bottom=0;right=0;fontStyle=1;fontSize=12;spacing=2;horizontal=1;fontFamily=Times New Roman;" parent="YdTmAqoiLgCzOXmf9878-74" vertex="1">
                    <mxGeometry width="30" height="30" as="geometry">
                        <mxRectangle width="30" height="30" as="alternateBounds"/>
                    </mxGeometry>
                </mxCell>
                <mxCell id="YdTmAqoiLgCzOXmf9878-76" value="EmployeeID NUMBER" style="shape=partialRectangle;overflow=hidden;connectable=0;fillColor=none;top=0;left=0;bottom=0;right=0;align=left;spacingLeft=6;fontStyle=5;fontSize=12;spacing=2;horizontal=1;fontFamily=Times New Roman;" parent="YdTmAqoiLgCzOXmf9878-74" vertex="1">
                    <mxGeometry x="30" width="242" height="30" as="geometry">
                        <mxRectangle width="242" height="30" as="alternateBounds"/>
                    </mxGeometry>
                </mxCell>
                <mxCell id="YdTmAqoiLgCzOXmf9878-154" value="" style="shape=partialRectangle;collapsible=0;dropTarget=0;pointerEvents=0;fillColor=none;points=[[0,0.5],[1,0.5]];portConstraint=eastwest;top=0;left=0;right=0;bottom=0;fontSize=12;spacing=2;horizontal=1;fontFamily=Times New Roman;" parent="YdTmAqoiLgCzOXmf9878-73" vertex="1">
                    <mxGeometry y="60" width="272" height="30" as="geometry"/>
                </mxCell>
                <mxCell id="YdTmAqoiLgCzOXmf9878-155" value="FK" style="shape=partialRectangle;overflow=hidden;connectable=0;fillColor=none;top=0;left=0;bottom=0;right=0;fontSize=12;spacing=2;horizontal=1;fontFamily=Times New Roman;" parent="YdTmAqoiLgCzOXmf9878-154" vertex="1">
                    <mxGeometry width="30" height="30" as="geometry">
                        <mxRectangle width="30" height="30" as="alternateBounds"/>
                    </mxGeometry>
                </mxCell>
                <mxCell id="YdTmAqoiLgCzOXmf9878-156" value="SupervisorID NUMBER" style="shape=partialRectangle;overflow=hidden;connectable=0;fillColor=none;top=0;left=0;bottom=0;right=0;align=left;spacingLeft=6;fontSize=12;spacing=2;horizontal=1;fontFamily=Times New Roman;" parent="YdTmAqoiLgCzOXmf9878-154" vertex="1">
                    <mxGeometry x="30" width="242" height="30" as="geometry">
                        <mxRectangle width="242" height="30" as="alternateBounds"/>
                    </mxGeometry>
                </mxCell>
                <mxCell id="YdTmAqoiLgCzOXmf9878-110" value="" style="shape=partialRectangle;collapsible=0;dropTarget=0;pointerEvents=0;fillColor=none;points=[[0,0.5],[1,0.5]];portConstraint=eastwest;top=0;left=0;right=0;bottom=0;fontSize=12;spacing=2;horizontal=1;fontFamily=Times New Roman;" parent="YdTmAqoiLgCzOXmf9878-73" vertex="1">
                    <mxGeometry y="90" width="272" height="30" as="geometry"/>
                </mxCell>
                <mxCell id="YdTmAqoiLgCzOXmf9878-111" value="FK" style="shape=partialRectangle;overflow=hidden;connectable=0;fillColor=none;top=0;left=0;bottom=0;right=0;fontSize=12;spacing=2;horizontal=1;fontFamily=Times New Roman;" parent="YdTmAqoiLgCzOXmf9878-110" vertex="1">
                    <mxGeometry width="30" height="30" as="geometry">
                        <mxRectangle width="30" height="30" as="alternateBounds"/>
                    </mxGeometry>
                </mxCell>
                <mxCell id="YdTmAqoiLgCzOXmf9878-112" value="DepartmentNumber NUMBER NOT NULL" style="shape=partialRectangle;overflow=hidden;connectable=0;fillColor=none;top=0;left=0;bottom=0;right=0;align=left;spacingLeft=6;fontSize=12;spacing=2;horizontal=1;fontFamily=Times New Roman;" parent="YdTmAqoiLgCzOXmf9878-110" vertex="1">
                    <mxGeometry x="30" width="242" height="30" as="geometry">
                        <mxRectangle width="242" height="30" as="alternateBounds"/>
                    </mxGeometry>
                </mxCell>
                <mxCell id="YdTmAqoiLgCzOXmf9878-77" value="" style="shape=partialRectangle;collapsible=0;dropTarget=0;pointerEvents=0;fillColor=none;points=[[0,0.5],[1,0.5]];portConstraint=eastwest;top=0;left=0;right=0;bottom=0;fontSize=12;spacing=2;horizontal=1;fontFamily=Times New Roman;" parent="YdTmAqoiLgCzOXmf9878-73" vertex="1">
                    <mxGeometry y="120" width="272" height="30" as="geometry"/>
                </mxCell>
                <mxCell id="YdTmAqoiLgCzOXmf9878-78" value="" style="shape=partialRectangle;overflow=hidden;connectable=0;fillColor=none;top=0;left=0;bottom=0;right=0;fontSize=12;spacing=2;horizontal=1;fontFamily=Times New Roman;" parent="YdTmAqoiLgCzOXmf9878-77" vertex="1">
                    <mxGeometry width="30" height="30" as="geometry">
                        <mxRectangle width="30" height="30" as="alternateBounds"/>
                    </mxGeometry>
                </mxCell>
                <mxCell id="YdTmAqoiLgCzOXmf9878-79" value="IsManager NUMBER NOT NULL" style="shape=partialRectangle;overflow=hidden;connectable=0;fillColor=none;top=0;left=0;bottom=0;right=0;align=left;spacingLeft=6;fontSize=12;spacing=2;horizontal=1;fontFamily=Times New Roman;" parent="YdTmAqoiLgCzOXmf9878-77" vertex="1">
                    <mxGeometry x="30" width="242" height="30" as="geometry">
                        <mxRectangle width="242" height="30" as="alternateBounds"/>
                    </mxGeometry>
                </mxCell>
                <mxCell id="YdTmAqoiLgCzOXmf9878-86" value="" style="shape=partialRectangle;collapsible=0;dropTarget=0;pointerEvents=0;fillColor=none;points=[[0,0.5],[1,0.5]];portConstraint=eastwest;top=0;left=0;right=0;bottom=0;fontSize=12;spacing=2;horizontal=1;fontFamily=Times New Roman;" parent="YdTmAqoiLgCzOXmf9878-73" vertex="1">
                    <mxGeometry y="150" width="272" height="30" as="geometry"/>
                </mxCell>
                <mxCell id="YdTmAqoiLgCzOXmf9878-87" value="" style="shape=partialRectangle;overflow=hidden;connectable=0;fillColor=none;top=0;left=0;bottom=0;right=0;fontSize=12;spacing=2;horizontal=1;fontFamily=Times New Roman;" parent="YdTmAqoiLgCzOXmf9878-86" vertex="1">
                    <mxGeometry width="30" height="30" as="geometry">
                        <mxRectangle width="30" height="30" as="alternateBounds"/>
                    </mxGeometry>
                </mxCell>
                <mxCell id="YdTmAqoiLgCzOXmf9878-88" value="JobTitle VARCHAR2(30) NOT NULL" style="shape=partialRectangle;overflow=hidden;connectable=0;fillColor=none;top=0;left=0;bottom=0;right=0;align=left;spacingLeft=6;fontSize=12;spacing=2;horizontal=1;fontFamily=Times New Roman;" parent="YdTmAqoiLgCzOXmf9878-86" vertex="1">
                    <mxGeometry x="30" width="242" height="30" as="geometry">
                        <mxRectangle width="242" height="30" as="alternateBounds"/>
                    </mxGeometry>
                </mxCell>
                <mxCell id="14" value="" style="shape=partialRectangle;collapsible=0;dropTarget=0;pointerEvents=0;fillColor=none;points=[[0,0.5],[1,0.5]];portConstraint=eastwest;top=0;left=0;right=0;bottom=0;fontSize=12;spacing=2;horizontal=1;fontFamily=Times New Roman;" vertex="1" parent="YdTmAqoiLgCzOXmf9878-73">
                    <mxGeometry y="180" width="272" height="30" as="geometry"/>
                </mxCell>
                <mxCell id="15" value="" style="shape=partialRectangle;overflow=hidden;connectable=0;fillColor=none;top=0;left=0;bottom=0;right=0;fontSize=12;spacing=2;horizontal=1;fontFamily=Times New Roman;" vertex="1" parent="14">
                    <mxGeometry width="30" height="30" as="geometry">
                        <mxRectangle width="30" height="30" as="alternateBounds"/>
                    </mxGeometry>
                </mxCell>
                <mxCell id="16" value="FirstName VARCHAR2(15) NOT NULL" style="shape=partialRectangle;overflow=hidden;connectable=0;fillColor=none;top=0;left=0;bottom=0;right=0;align=left;spacingLeft=6;fontSize=12;spacing=2;horizontal=1;fontFamily=Times New Roman;" vertex="1" parent="14">
                    <mxGeometry x="30" width="242" height="30" as="geometry">
                        <mxRectangle width="242" height="30" as="alternateBounds"/>
                    </mxGeometry>
                </mxCell>
                <mxCell id="YdTmAqoiLgCzOXmf9878-89" value="" style="shape=partialRectangle;collapsible=0;dropTarget=0;pointerEvents=0;fillColor=none;points=[[0,0.5],[1,0.5]];portConstraint=eastwest;top=0;left=0;right=0;bottom=0;fontSize=12;spacing=2;horizontal=1;fontFamily=Times New Roman;" parent="YdTmAqoiLgCzOXmf9878-73" vertex="1">
                    <mxGeometry y="210" width="272" height="30" as="geometry"/>
                </mxCell>
                <mxCell id="YdTmAqoiLgCzOXmf9878-90" value="" style="shape=partialRectangle;overflow=hidden;connectable=0;fillColor=none;top=0;left=0;bottom=0;right=0;fontSize=12;spacing=2;horizontal=1;fontFamily=Times New Roman;" parent="YdTmAqoiLgCzOXmf9878-89" vertex="1">
                    <mxGeometry width="30" height="30" as="geometry">
                        <mxRectangle width="30" height="30" as="alternateBounds"/>
                    </mxGeometry>
                </mxCell>
                <mxCell id="YdTmAqoiLgCzOXmf9878-91" value="LastName VARCHAR2(30) NOT NULL" style="shape=partialRectangle;overflow=hidden;connectable=0;fillColor=none;top=0;left=0;bottom=0;right=0;align=left;spacingLeft=6;fontSize=12;spacing=2;horizontal=1;fontFamily=Times New Roman;" parent="YdTmAqoiLgCzOXmf9878-89" vertex="1">
                    <mxGeometry x="30" width="242" height="30" as="geometry">
                        <mxRectangle width="242" height="30" as="alternateBounds"/>
                    </mxGeometry>
                </mxCell>
                <mxCell id="YdTmAqoiLgCzOXmf9878-92" value="" style="shape=partialRectangle;collapsible=0;dropTarget=0;pointerEvents=0;fillColor=none;points=[[0,0.5],[1,0.5]];portConstraint=eastwest;top=0;left=0;right=0;bottom=0;fontSize=12;spacing=2;horizontal=1;fontFamily=Times New Roman;" parent="YdTmAqoiLgCzOXmf9878-73" vertex="1">
                    <mxGeometry y="240" width="272" height="30" as="geometry"/>
                </mxCell>
                <mxCell id="YdTmAqoiLgCzOXmf9878-93" value="" style="shape=partialRectangle;overflow=hidden;connectable=0;fillColor=none;top=0;left=0;bottom=0;right=0;fontSize=12;spacing=2;horizontal=1;fontFamily=Times New Roman;" parent="YdTmAqoiLgCzOXmf9878-92" vertex="1">
                    <mxGeometry width="30" height="30" as="geometry">
                        <mxRectangle width="30" height="30" as="alternateBounds"/>
                    </mxGeometry>
                </mxCell>
                <mxCell id="YdTmAqoiLgCzOXmf9878-94" value="NINO VARCHAR2(20) NOT NULL UNIQUE" style="shape=partialRectangle;overflow=hidden;connectable=0;fillColor=none;top=0;left=0;bottom=0;right=0;align=left;spacingLeft=6;fontSize=12;spacing=2;horizontal=1;fontFamily=Times New Roman;" parent="YdTmAqoiLgCzOXmf9878-92" vertex="1">
                    <mxGeometry x="30" width="242" height="30" as="geometry">
                        <mxRectangle width="242" height="30" as="alternateBounds"/>
                    </mxGeometry>
                </mxCell>
                <mxCell id="YdTmAqoiLgCzOXmf9878-95" value="" style="shape=partialRectangle;collapsible=0;dropTarget=0;pointerEvents=0;fillColor=none;points=[[0,0.5],[1,0.5]];portConstraint=eastwest;top=0;left=0;right=0;bottom=0;fontSize=12;spacing=2;horizontal=1;fontFamily=Times New Roman;" parent="YdTmAqoiLgCzOXmf9878-73" vertex="1">
                    <mxGeometry y="270" width="272" height="30" as="geometry"/>
                </mxCell>
                <mxCell id="YdTmAqoiLgCzOXmf9878-96" value="" style="shape=partialRectangle;overflow=hidden;connectable=0;fillColor=none;top=0;left=0;bottom=0;right=0;fontSize=12;spacing=2;horizontal=1;fontFamily=Times New Roman;" parent="YdTmAqoiLgCzOXmf9878-95" vertex="1">
                    <mxGeometry width="30" height="30" as="geometry">
                        <mxRectangle width="30" height="30" as="alternateBounds"/>
                    </mxGeometry>
                </mxCell>
                <mxCell id="YdTmAqoiLgCzOXmf9878-97" value="StreetAddress VARCHAR2(100) NOT NULL" style="shape=partialRectangle;overflow=hidden;connectable=0;fillColor=none;top=0;left=0;bottom=0;right=0;align=left;spacingLeft=6;fontSize=12;spacing=2;horizontal=1;fontFamily=Times New Roman;" parent="YdTmAqoiLgCzOXmf9878-95" vertex="1">
                    <mxGeometry x="30" width="242" height="30" as="geometry">
                        <mxRectangle width="242" height="30" as="alternateBounds"/>
                    </mxGeometry>
                </mxCell>
                <mxCell id="YdTmAqoiLgCzOXmf9878-98" value="" style="shape=partialRectangle;collapsible=0;dropTarget=0;pointerEvents=0;fillColor=none;points=[[0,0.5],[1,0.5]];portConstraint=eastwest;top=0;left=0;right=0;bottom=0;fontSize=12;spacing=2;horizontal=1;fontFamily=Times New Roman;" parent="YdTmAqoiLgCzOXmf9878-73" vertex="1">
                    <mxGeometry y="300" width="272" height="30" as="geometry"/>
                </mxCell>
                <mxCell id="YdTmAqoiLgCzOXmf9878-99" value="" style="shape=partialRectangle;overflow=hidden;connectable=0;fillColor=none;top=0;left=0;bottom=0;right=0;fontSize=12;spacing=2;horizontal=1;fontFamily=Times New Roman;" parent="YdTmAqoiLgCzOXmf9878-98" vertex="1">
                    <mxGeometry width="30" height="30" as="geometry">
                        <mxRectangle width="30" height="30" as="alternateBounds"/>
                    </mxGeometry>
                </mxCell>
                <mxCell id="YdTmAqoiLgCzOXmf9878-100" value="Salary NUMBER NOT NULL" style="shape=partialRectangle;overflow=hidden;connectable=0;fillColor=none;top=0;left=0;bottom=0;right=0;align=left;spacingLeft=6;fontSize=12;spacing=2;horizontal=1;fontFamily=Times New Roman;" parent="YdTmAqoiLgCzOXmf9878-98" vertex="1">
                    <mxGeometry x="30" width="242" height="30" as="geometry">
                        <mxRectangle width="242" height="30" as="alternateBounds"/>
                    </mxGeometry>
                </mxCell>
                <mxCell id="YdTmAqoiLgCzOXmf9878-101" value="" style="shape=partialRectangle;collapsible=0;dropTarget=0;pointerEvents=0;fillColor=none;points=[[0,0.5],[1,0.5]];portConstraint=eastwest;top=0;left=0;right=0;bottom=0;fontSize=12;spacing=2;horizontal=1;fontFamily=Times New Roman;" parent="YdTmAqoiLgCzOXmf9878-73" vertex="1">
                    <mxGeometry y="330" width="272" height="30" as="geometry"/>
                </mxCell>
                <mxCell id="YdTmAqoiLgCzOXmf9878-102" value="" style="shape=partialRectangle;overflow=hidden;connectable=0;fillColor=none;top=0;left=0;bottom=0;right=0;fontSize=12;spacing=2;horizontal=1;fontFamily=Times New Roman;" parent="YdTmAqoiLgCzOXmf9878-101" vertex="1">
                    <mxGeometry width="30" height="30" as="geometry">
                        <mxRectangle width="30" height="30" as="alternateBounds"/>
                    </mxGeometry>
                </mxCell>
                <mxCell id="YdTmAqoiLgCzOXmf9878-103" value="DateOfBirth DATE NOT NULL" style="shape=partialRectangle;overflow=hidden;connectable=0;fillColor=none;top=0;left=0;bottom=0;right=0;align=left;spacingLeft=6;fontSize=12;spacing=2;horizontal=1;fontFamily=Times New Roman;" parent="YdTmAqoiLgCzOXmf9878-101" vertex="1">
                    <mxGeometry x="30" width="242" height="30" as="geometry">
                        <mxRectangle width="242" height="30" as="alternateBounds"/>
                    </mxGeometry>
                </mxCell>
                <mxCell id="YdTmAqoiLgCzOXmf9878-104" value="" style="shape=partialRectangle;collapsible=0;dropTarget=0;pointerEvents=0;fillColor=none;points=[[0,0.5],[1,0.5]];portConstraint=eastwest;top=0;left=0;right=0;bottom=0;fontSize=12;spacing=2;horizontal=1;fontFamily=Times New Roman;" parent="YdTmAqoiLgCzOXmf9878-73" vertex="1">
                    <mxGeometry y="360" width="272" height="30" as="geometry"/>
                </mxCell>
                <mxCell id="YdTmAqoiLgCzOXmf9878-105" value="" style="shape=partialRectangle;overflow=hidden;connectable=0;fillColor=none;top=0;left=0;bottom=0;right=0;fontSize=12;spacing=2;horizontal=1;fontFamily=Times New Roman;" parent="YdTmAqoiLgCzOXmf9878-104" vertex="1">
                    <mxGeometry width="30" height="30" as="geometry">
                        <mxRectangle width="30" height="30" as="alternateBounds"/>
                    </mxGeometry>
                </mxCell>
                <mxCell id="YdTmAqoiLgCzOXmf9878-106" value="Email VARCHAR2(50) NOT NULL UNIQUE" style="shape=partialRectangle;overflow=hidden;connectable=0;fillColor=none;top=0;left=0;bottom=0;right=0;align=left;spacingLeft=6;fontSize=12;spacing=2;horizontal=1;fontFamily=Times New Roman;" parent="YdTmAqoiLgCzOXmf9878-104" vertex="1">
                    <mxGeometry x="30" width="242" height="30" as="geometry">
                        <mxRectangle width="242" height="30" as="alternateBounds"/>
                    </mxGeometry>
                </mxCell>
                <mxCell id="YdTmAqoiLgCzOXmf9878-107" value="" style="shape=partialRectangle;collapsible=0;dropTarget=0;pointerEvents=0;fillColor=none;points=[[0,0.5],[1,0.5]];portConstraint=eastwest;top=0;left=0;right=0;bottom=0;fontSize=12;spacing=2;horizontal=1;fontFamily=Times New Roman;" parent="YdTmAqoiLgCzOXmf9878-73" vertex="1">
                    <mxGeometry y="390" width="272" height="30" as="geometry"/>
                </mxCell>
                <mxCell id="YdTmAqoiLgCzOXmf9878-108" value="" style="shape=partialRectangle;overflow=hidden;connectable=0;fillColor=none;top=0;left=0;bottom=0;right=0;fontSize=12;spacing=2;horizontal=1;fontFamily=Times New Roman;" parent="YdTmAqoiLgCzOXmf9878-107" vertex="1">
                    <mxGeometry width="30" height="30" as="geometry">
                        <mxRectangle width="30" height="30" as="alternateBounds"/>
                    </mxGeometry>
                </mxCell>
                <mxCell id="YdTmAqoiLgCzOXmf9878-109" value="PhoneNumber VARCHAR2(20) NOT NULL" style="shape=partialRectangle;overflow=hidden;connectable=0;fillColor=none;top=0;left=0;bottom=0;right=0;align=left;spacingLeft=6;fontSize=12;spacing=2;horizontal=1;fontFamily=Times New Roman;" parent="YdTmAqoiLgCzOXmf9878-107" vertex="1">
                    <mxGeometry x="30" width="242" height="30" as="geometry">
                        <mxRectangle width="242" height="30" as="alternateBounds"/>
                    </mxGeometry>
                </mxCell>
                <mxCell id="17" value="" style="shape=partialRectangle;collapsible=0;dropTarget=0;pointerEvents=0;fillColor=none;points=[[0,0.5],[1,0.5]];portConstraint=eastwest;top=0;left=0;right=0;bottom=0;fontSize=12;spacing=2;horizontal=1;fontFamily=Times New Roman;" vertex="1" parent="YdTmAqoiLgCzOXmf9878-73">
                    <mxGeometry y="420" width="272" height="30" as="geometry"/>
                </mxCell>
                <mxCell id="18" value="" style="shape=partialRectangle;overflow=hidden;connectable=0;fillColor=none;top=0;left=0;bottom=0;right=0;fontSize=12;spacing=2;horizontal=1;fontFamily=Times New Roman;" vertex="1" parent="17">
                    <mxGeometry width="30" height="30" as="geometry">
                        <mxRectangle width="30" height="30" as="alternateBounds"/>
                    </mxGeometry>
                </mxCell>
                <mxCell id="19" value="StartDate DATE DEFAULT NOT NULL" style="shape=partialRectangle;overflow=hidden;connectable=0;fillColor=none;top=0;left=0;bottom=0;right=0;align=left;spacingLeft=6;fontSize=12;spacing=2;horizontal=1;fontFamily=Times New Roman;" vertex="1" parent="17">
                    <mxGeometry x="30" width="242" height="30" as="geometry">
                        <mxRectangle width="242" height="30" as="alternateBounds"/>
                    </mxGeometry>
                </mxCell>
                <mxCell id="20" value="" style="shape=partialRectangle;collapsible=0;dropTarget=0;pointerEvents=0;fillColor=none;points=[[0,0.5],[1,0.5]];portConstraint=eastwest;top=0;left=0;right=0;bottom=0;fontSize=12;spacing=2;horizontal=1;fontFamily=Times New Roman;" vertex="1" parent="YdTmAqoiLgCzOXmf9878-73">
                    <mxGeometry y="450" width="272" height="30" as="geometry"/>
                </mxCell>
                <mxCell id="21" value="" style="shape=partialRectangle;overflow=hidden;connectable=0;fillColor=none;top=0;left=0;bottom=0;right=0;fontSize=12;spacing=2;horizontal=1;fontFamily=Times New Roman;" vertex="1" parent="20">
                    <mxGeometry width="30" height="30" as="geometry">
                        <mxRectangle width="30" height="30" as="alternateBounds"/>
                    </mxGeometry>
                </mxCell>
                <mxCell id="22" value="LeavingDate DATE" style="shape=partialRectangle;overflow=hidden;connectable=0;fillColor=none;top=0;left=0;bottom=0;right=0;align=left;spacingLeft=6;fontSize=12;spacing=2;horizontal=1;fontFamily=Times New Roman;" vertex="1" parent="20">
                    <mxGeometry x="30" width="242" height="30" as="geometry">
                        <mxRectangle width="242" height="30" as="alternateBounds"/>
                    </mxGeometry>
                </mxCell>
                <mxCell id="59" value="" style="edgeStyle=elbowEdgeStyle;fontSize=12;html=1;endArrow=ERoneToMany;startArrow=ERzeroToOne;fontFamily=Times New Roman;entryX=1;entryY=0.5;entryDx=0;entryDy=0;exitX=1;exitY=0.5;exitDx=0;exitDy=0;" edge="1" parent="YdTmAqoiLgCzOXmf9878-73" source="YdTmAqoiLgCzOXmf9878-154" target="YdTmAqoiLgCzOXmf9878-74">
                    <mxGeometry width="100" height="100" relative="1" as="geometry">
                        <mxPoint x="306" y="262" as="sourcePoint"/>
                        <mxPoint x="35.99999999999977" y="494" as="targetPoint"/>
                        <Array as="points">
                            <mxPoint x="296" y="389"/>
                        </Array>
                    </mxGeometry>
                </mxCell>
                <mxCell id="YdTmAqoiLgCzOXmf9878-113" value="Assignments" style="shape=table;startSize=30;container=1;collapsible=1;childLayout=tableLayout;fixedRows=1;rowLines=0;fontStyle=1;align=center;resizeLast=1;fontSize=12;spacing=2;horizontal=1;fontFamily=Times New Roman;" parent="1" vertex="1">
                    <mxGeometry x="367" y="562" width="250" height="210" as="geometry"/>
                </mxCell>
                <mxCell id="YdTmAqoiLgCzOXmf9878-114" value="" style="shape=partialRectangle;collapsible=0;dropTarget=0;pointerEvents=0;fillColor=none;points=[[0,0.5],[1,0.5]];portConstraint=eastwest;top=0;left=0;right=0;bottom=1;fontSize=12;spacing=2;horizontal=1;fontFamily=Times New Roman;" parent="YdTmAqoiLgCzOXmf9878-113" vertex="1">
                    <mxGeometry y="30" width="250" height="30" as="geometry"/>
                </mxCell>
                <mxCell id="YdTmAqoiLgCzOXmf9878-115" value="PK" style="shape=partialRectangle;overflow=hidden;connectable=0;fillColor=none;top=0;left=0;bottom=0;right=0;fontStyle=1;fontSize=12;spacing=2;horizontal=1;fontFamily=Times New Roman;" parent="YdTmAqoiLgCzOXmf9878-114" vertex="1">
                    <mxGeometry width="30" height="30" as="geometry">
                        <mxRectangle width="30" height="30" as="alternateBounds"/>
                    </mxGeometry>
                </mxCell>
                <mxCell id="YdTmAqoiLgCzOXmf9878-116" value="AssignmentID NUMBER" style="shape=partialRectangle;overflow=hidden;connectable=0;fillColor=none;top=0;left=0;bottom=0;right=0;align=left;spacingLeft=6;fontStyle=5;fontSize=12;spacing=2;horizontal=1;fontFamily=Times New Roman;" parent="YdTmAqoiLgCzOXmf9878-114" vertex="1">
                    <mxGeometry x="30" width="220" height="30" as="geometry">
                        <mxRectangle width="220" height="30" as="alternateBounds"/>
                    </mxGeometry>
                </mxCell>
                <mxCell id="YdTmAqoiLgCzOXmf9878-117" value="" style="shape=partialRectangle;collapsible=0;dropTarget=0;pointerEvents=0;fillColor=none;points=[[0,0.5],[1,0.5]];portConstraint=eastwest;top=0;left=0;right=0;bottom=0;fontSize=12;spacing=2;horizontal=1;fontFamily=Times New Roman;" parent="YdTmAqoiLgCzOXmf9878-113" vertex="1">
                    <mxGeometry y="60" width="250" height="30" as="geometry"/>
                </mxCell>
                <mxCell id="YdTmAqoiLgCzOXmf9878-118" value="FK" style="shape=partialRectangle;overflow=hidden;connectable=0;fillColor=none;top=0;left=0;bottom=0;right=0;fontSize=12;spacing=2;horizontal=1;fontFamily=Times New Roman;" parent="YdTmAqoiLgCzOXmf9878-117" vertex="1">
                    <mxGeometry width="30" height="30" as="geometry">
                        <mxRectangle width="30" height="30" as="alternateBounds"/>
                    </mxGeometry>
                </mxCell>
                <mxCell id="YdTmAqoiLgCzOXmf9878-119" value="EmployeeID NUMBER NOT NULL" style="shape=partialRectangle;overflow=hidden;connectable=0;fillColor=none;top=0;left=0;bottom=0;right=0;align=left;spacingLeft=6;fontSize=12;spacing=2;horizontal=1;fontFamily=Times New Roman;" parent="YdTmAqoiLgCzOXmf9878-117" vertex="1">
                    <mxGeometry x="30" width="220" height="30" as="geometry">
                        <mxRectangle width="220" height="30" as="alternateBounds"/>
                    </mxGeometry>
                </mxCell>
                <mxCell id="YdTmAqoiLgCzOXmf9878-123" value="" style="shape=partialRectangle;collapsible=0;dropTarget=0;pointerEvents=0;fillColor=none;points=[[0,0.5],[1,0.5]];portConstraint=eastwest;top=0;left=0;right=0;bottom=0;fontSize=12;spacing=2;horizontal=1;fontFamily=Times New Roman;" parent="YdTmAqoiLgCzOXmf9878-113" vertex="1">
                    <mxGeometry y="90" width="250" height="30" as="geometry"/>
                </mxCell>
                <mxCell id="YdTmAqoiLgCzOXmf9878-124" value="FK" style="shape=partialRectangle;overflow=hidden;connectable=0;fillColor=none;top=0;left=0;bottom=0;right=0;fontSize=12;spacing=2;horizontal=1;fontFamily=Times New Roman;" parent="YdTmAqoiLgCzOXmf9878-123" vertex="1">
                    <mxGeometry width="30" height="30" as="geometry">
                        <mxRectangle width="30" height="30" as="alternateBounds"/>
                    </mxGeometry>
                </mxCell>
                <mxCell id="YdTmAqoiLgCzOXmf9878-125" value="ProjectNumber NUMBER NOT NULL" style="shape=partialRectangle;overflow=hidden;connectable=0;fillColor=none;top=0;left=0;bottom=0;right=0;align=left;spacingLeft=6;fontSize=12;spacing=2;horizontal=1;fontFamily=Times New Roman;" parent="YdTmAqoiLgCzOXmf9878-123" vertex="1">
                    <mxGeometry x="30" width="220" height="30" as="geometry">
                        <mxRectangle width="220" height="30" as="alternateBounds"/>
                    </mxGeometry>
                </mxCell>
                <mxCell id="YdTmAqoiLgCzOXmf9878-129" value="" style="shape=partialRectangle;collapsible=0;dropTarget=0;pointerEvents=0;fillColor=none;points=[[0,0.5],[1,0.5]];portConstraint=eastwest;top=0;left=0;right=0;bottom=0;fontSize=12;spacing=2;horizontal=1;fontFamily=Times New Roman;" parent="YdTmAqoiLgCzOXmf9878-113" vertex="1">
                    <mxGeometry y="120" width="250" height="30" as="geometry"/>
                </mxCell>
                <mxCell id="YdTmAqoiLgCzOXmf9878-130" value="" style="shape=partialRectangle;overflow=hidden;connectable=0;fillColor=none;top=0;left=0;bottom=0;right=0;fontSize=12;spacing=2;horizontal=1;fontFamily=Times New Roman;" parent="YdTmAqoiLgCzOXmf9878-129" vertex="1">
                    <mxGeometry width="30" height="30" as="geometry">
                        <mxRectangle width="30" height="30" as="alternateBounds"/>
                    </mxGeometry>
                </mxCell>
                <mxCell id="YdTmAqoiLgCzOXmf9878-131" value="HoursPerWeek NUMBER NOT NULL" style="shape=partialRectangle;overflow=hidden;connectable=0;fillColor=none;top=0;left=0;bottom=0;right=0;align=left;spacingLeft=6;fontSize=12;spacing=2;horizontal=1;fontFamily=Times New Roman;" parent="YdTmAqoiLgCzOXmf9878-129" vertex="1">
                    <mxGeometry x="30" width="220" height="30" as="geometry">
                        <mxRectangle width="220" height="30" as="alternateBounds"/>
                    </mxGeometry>
                </mxCell>
                <mxCell id="32" value="" style="shape=partialRectangle;collapsible=0;dropTarget=0;pointerEvents=0;fillColor=none;points=[[0,0.5],[1,0.5]];portConstraint=eastwest;top=0;left=0;right=0;bottom=0;fontSize=12;spacing=2;horizontal=1;fontFamily=Times New Roman;" vertex="1" parent="YdTmAqoiLgCzOXmf9878-113">
                    <mxGeometry y="150" width="250" height="30" as="geometry"/>
                </mxCell>
                <mxCell id="33" value="" style="shape=partialRectangle;overflow=hidden;connectable=0;fillColor=none;top=0;left=0;bottom=0;right=0;fontSize=12;spacing=2;horizontal=1;fontFamily=Times New Roman;" vertex="1" parent="32">
                    <mxGeometry width="30" height="30" as="geometry">
                        <mxRectangle width="30" height="30" as="alternateBounds"/>
                    </mxGeometry>
                </mxCell>
                <mxCell id="34" value="AssignmentStart DATE NOT NULL" style="shape=partialRectangle;overflow=hidden;connectable=0;fillColor=none;top=0;left=0;bottom=0;right=0;align=left;spacingLeft=6;fontSize=12;spacing=2;horizontal=1;fontFamily=Times New Roman;" vertex="1" parent="32">
                    <mxGeometry x="30" width="220" height="30" as="geometry">
                        <mxRectangle width="220" height="30" as="alternateBounds"/>
                    </mxGeometry>
                </mxCell>
                <mxCell id="35" value="" style="shape=partialRectangle;collapsible=0;dropTarget=0;pointerEvents=0;fillColor=none;points=[[0,0.5],[1,0.5]];portConstraint=eastwest;top=0;left=0;right=0;bottom=0;fontSize=12;spacing=2;horizontal=1;fontFamily=Times New Roman;" vertex="1" parent="YdTmAqoiLgCzOXmf9878-113">
                    <mxGeometry y="180" width="250" height="30" as="geometry"/>
                </mxCell>
                <mxCell id="36" value="" style="shape=partialRectangle;overflow=hidden;connectable=0;fillColor=none;top=0;left=0;bottom=0;right=0;fontSize=12;spacing=2;horizontal=1;fontFamily=Times New Roman;" vertex="1" parent="35">
                    <mxGeometry width="30" height="30" as="geometry">
                        <mxRectangle width="30" height="30" as="alternateBounds"/>
                    </mxGeometry>
                </mxCell>
                <mxCell id="37" value="AssignmentEnd DATE" style="shape=partialRectangle;overflow=hidden;connectable=0;fillColor=none;top=0;left=0;bottom=0;right=0;align=left;spacingLeft=6;fontSize=12;spacing=2;horizontal=1;fontFamily=Times New Roman;" vertex="1" parent="35">
                    <mxGeometry x="30" width="220" height="30" as="geometry">
                        <mxRectangle width="220" height="30" as="alternateBounds"/>
                    </mxGeometry>
                </mxCell>
                <mxCell id="YdTmAqoiLgCzOXmf9878-137" value="Dependents" style="shape=table;startSize=30;container=1;collapsible=1;childLayout=tableLayout;fixedRows=1;rowLines=0;fontStyle=1;align=center;resizeLast=1;fontSize=12;spacing=2;horizontal=1;fontFamily=Times New Roman;" parent="1" vertex="1">
                    <mxGeometry x="683" y="546" width="259" height="180" as="geometry"/>
                </mxCell>
                <mxCell id="YdTmAqoiLgCzOXmf9878-138" value="" style="shape=partialRectangle;collapsible=0;dropTarget=0;pointerEvents=0;fillColor=none;points=[[0,0.5],[1,0.5]];portConstraint=eastwest;top=0;left=0;right=0;bottom=1;fontSize=12;spacing=2;horizontal=1;fontFamily=Times New Roman;" parent="YdTmAqoiLgCzOXmf9878-137" vertex="1">
                    <mxGeometry y="30" width="259" height="30" as="geometry"/>
                </mxCell>
                <mxCell id="YdTmAqoiLgCzOXmf9878-139" value="PK" style="shape=partialRectangle;overflow=hidden;connectable=0;fillColor=none;top=0;left=0;bottom=0;right=0;fontStyle=1;fontSize=12;spacing=2;horizontal=1;fontFamily=Times New Roman;" parent="YdTmAqoiLgCzOXmf9878-138" vertex="1">
                    <mxGeometry width="30" height="30" as="geometry">
                        <mxRectangle width="30" height="30" as="alternateBounds"/>
                    </mxGeometry>
                </mxCell>
                <mxCell id="YdTmAqoiLgCzOXmf9878-140" value="DependentID NUMBER" style="shape=partialRectangle;overflow=hidden;connectable=0;fillColor=none;top=0;left=0;bottom=0;right=0;align=left;spacingLeft=6;fontStyle=5;fontSize=12;spacing=2;horizontal=1;fontFamily=Times New Roman;" parent="YdTmAqoiLgCzOXmf9878-138" vertex="1">
                    <mxGeometry x="30" width="229" height="30" as="geometry">
                        <mxRectangle width="229" height="30" as="alternateBounds"/>
                    </mxGeometry>
                </mxCell>
                <mxCell id="YdTmAqoiLgCzOXmf9878-141" value="" style="shape=partialRectangle;collapsible=0;dropTarget=0;pointerEvents=0;fillColor=none;points=[[0,0.5],[1,0.5]];portConstraint=eastwest;top=0;left=0;right=0;bottom=0;fontSize=12;spacing=2;horizontal=1;fontFamily=Times New Roman;" parent="YdTmAqoiLgCzOXmf9878-137" vertex="1">
                    <mxGeometry y="60" width="259" height="30" as="geometry"/>
                </mxCell>
                <mxCell id="YdTmAqoiLgCzOXmf9878-142" value="FK" style="shape=partialRectangle;overflow=hidden;connectable=0;fillColor=none;top=0;left=0;bottom=0;right=0;fontSize=12;spacing=2;horizontal=1;fontFamily=Times New Roman;" parent="YdTmAqoiLgCzOXmf9878-141" vertex="1">
                    <mxGeometry width="30" height="30" as="geometry">
                        <mxRectangle width="30" height="30" as="alternateBounds"/>
                    </mxGeometry>
                </mxCell>
                <mxCell id="YdTmAqoiLgCzOXmf9878-143" value="EmployeeID NUMBER NOT NULL" style="shape=partialRectangle;overflow=hidden;connectable=0;fillColor=none;top=0;left=0;bottom=0;right=0;align=left;spacingLeft=6;fontSize=12;spacing=2;horizontal=1;fontFamily=Times New Roman;" parent="YdTmAqoiLgCzOXmf9878-141" vertex="1">
                    <mxGeometry x="30" width="229" height="30" as="geometry">
                        <mxRectangle width="229" height="30" as="alternateBounds"/>
                    </mxGeometry>
                </mxCell>
                <mxCell id="YdTmAqoiLgCzOXmf9878-144" value="" style="shape=partialRectangle;collapsible=0;dropTarget=0;pointerEvents=0;fillColor=none;points=[[0,0.5],[1,0.5]];portConstraint=eastwest;top=0;left=0;right=0;bottom=0;fontSize=12;spacing=2;horizontal=1;fontFamily=Times New Roman;" parent="YdTmAqoiLgCzOXmf9878-137" vertex="1">
                    <mxGeometry y="90" width="259" height="30" as="geometry"/>
                </mxCell>
                <mxCell id="YdTmAqoiLgCzOXmf9878-145" value="" style="shape=partialRectangle;overflow=hidden;connectable=0;fillColor=none;top=0;left=0;bottom=0;right=0;fontSize=12;spacing=2;horizontal=1;fontFamily=Times New Roman;" parent="YdTmAqoiLgCzOXmf9878-144" vertex="1">
                    <mxGeometry width="30" height="30" as="geometry">
                        <mxRectangle width="30" height="30" as="alternateBounds"/>
                    </mxGeometry>
                </mxCell>
                <mxCell id="YdTmAqoiLgCzOXmf9878-146" value="FirstName VARCHAR2(15) NOT NULL" style="shape=partialRectangle;overflow=hidden;connectable=0;fillColor=none;top=0;left=0;bottom=0;right=0;align=left;spacingLeft=6;fontSize=12;spacing=2;horizontal=1;fontFamily=Times New Roman;" parent="YdTmAqoiLgCzOXmf9878-144" vertex="1">
                    <mxGeometry x="30" width="229" height="30" as="geometry">
                        <mxRectangle width="229" height="30" as="alternateBounds"/>
                    </mxGeometry>
                </mxCell>
                <mxCell id="YdTmAqoiLgCzOXmf9878-147" value="" style="shape=partialRectangle;collapsible=0;dropTarget=0;pointerEvents=0;fillColor=none;points=[[0,0.5],[1,0.5]];portConstraint=eastwest;top=0;left=0;right=0;bottom=0;fontSize=12;spacing=2;horizontal=1;fontFamily=Times New Roman;" parent="YdTmAqoiLgCzOXmf9878-137" vertex="1">
                    <mxGeometry y="120" width="259" height="30" as="geometry"/>
                </mxCell>
                <mxCell id="YdTmAqoiLgCzOXmf9878-148" value="" style="shape=partialRectangle;overflow=hidden;connectable=0;fillColor=none;top=0;left=0;bottom=0;right=0;fontSize=12;spacing=2;horizontal=1;fontFamily=Times New Roman;" parent="YdTmAqoiLgCzOXmf9878-147" vertex="1">
                    <mxGeometry width="30" height="30" as="geometry">
                        <mxRectangle width="30" height="30" as="alternateBounds"/>
                    </mxGeometry>
                </mxCell>
                <mxCell id="YdTmAqoiLgCzOXmf9878-149" value="BirthDate DATE NOT NULL" style="shape=partialRectangle;overflow=hidden;connectable=0;fillColor=none;top=0;left=0;bottom=0;right=0;align=left;spacingLeft=6;fontSize=12;spacing=2;horizontal=1;fontFamily=Times New Roman;" parent="YdTmAqoiLgCzOXmf9878-147" vertex="1">
                    <mxGeometry x="30" width="229" height="30" as="geometry">
                        <mxRectangle width="229" height="30" as="alternateBounds"/>
                    </mxGeometry>
                </mxCell>
                <mxCell id="YdTmAqoiLgCzOXmf9878-150" value="" style="shape=partialRectangle;collapsible=0;dropTarget=0;pointerEvents=0;fillColor=none;points=[[0,0.5],[1,0.5]];portConstraint=eastwest;top=0;left=0;right=0;bottom=0;fontSize=12;spacing=2;horizontal=1;fontFamily=Times New Roman;" parent="YdTmAqoiLgCzOXmf9878-137" vertex="1">
                    <mxGeometry y="150" width="259" height="30" as="geometry"/>
                </mxCell>
                <mxCell id="YdTmAqoiLgCzOXmf9878-151" value="" style="shape=partialRectangle;overflow=hidden;connectable=0;fillColor=none;top=0;left=0;bottom=0;right=0;fontSize=12;spacing=2;horizontal=1;fontFamily=Times New Roman;" parent="YdTmAqoiLgCzOXmf9878-150" vertex="1">
                    <mxGeometry width="30" height="30" as="geometry">
                        <mxRectangle width="30" height="30" as="alternateBounds"/>
                    </mxGeometry>
                </mxCell>
                <mxCell id="YdTmAqoiLgCzOXmf9878-152" value="Relationship VARCHAR2(50) NOT NULL" style="shape=partialRectangle;overflow=hidden;connectable=0;fillColor=none;top=0;left=0;bottom=0;right=0;align=left;spacingLeft=6;fontSize=12;spacing=2;horizontal=1;fontFamily=Times New Roman;" parent="YdTmAqoiLgCzOXmf9878-150" vertex="1">
                    <mxGeometry x="30" width="229" height="30" as="geometry">
                        <mxRectangle width="229" height="30" as="alternateBounds"/>
                    </mxGeometry>
                </mxCell>
                <mxCell id="YdTmAqoiLgCzOXmf9878-160" value="Customers" style="shape=table;startSize=30;container=1;collapsible=1;childLayout=tableLayout;fixedRows=1;rowLines=0;fontStyle=1;align=center;resizeLast=1;fontSize=12;spacing=2;horizontal=1;fontFamily=Times New Roman;" parent="1" vertex="1">
                    <mxGeometry x="990" y="31" width="270" height="180" as="geometry"/>
                </mxCell>
                <mxCell id="YdTmAqoiLgCzOXmf9878-161" value="" style="shape=partialRectangle;collapsible=0;dropTarget=0;pointerEvents=0;fillColor=none;points=[[0,0.5],[1,0.5]];portConstraint=eastwest;top=0;left=0;right=0;bottom=1;fontSize=12;spacing=2;horizontal=1;fontFamily=Times New Roman;" parent="YdTmAqoiLgCzOXmf9878-160" vertex="1">
                    <mxGeometry y="30" width="270" height="30" as="geometry"/>
                </mxCell>
                <mxCell id="YdTmAqoiLgCzOXmf9878-162" value="PK" style="shape=partialRectangle;overflow=hidden;connectable=0;fillColor=none;top=0;left=0;bottom=0;right=0;fontStyle=1;fontSize=12;spacing=2;horizontal=1;fontFamily=Times New Roman;" parent="YdTmAqoiLgCzOXmf9878-161" vertex="1">
                    <mxGeometry width="30" height="30" as="geometry">
                        <mxRectangle width="30" height="30" as="alternateBounds"/>
                    </mxGeometry>
                </mxCell>
                <mxCell id="YdTmAqoiLgCzOXmf9878-163" value="CustomerID NUMBER" style="shape=partialRectangle;overflow=hidden;connectable=0;fillColor=none;top=0;left=0;bottom=0;right=0;align=left;spacingLeft=6;fontStyle=5;fontSize=12;spacing=2;horizontal=1;fontFamily=Times New Roman;" parent="YdTmAqoiLgCzOXmf9878-161" vertex="1">
                    <mxGeometry x="30" width="240" height="30" as="geometry">
                        <mxRectangle width="240" height="30" as="alternateBounds"/>
                    </mxGeometry>
                </mxCell>
                <mxCell id="YdTmAqoiLgCzOXmf9878-167" value="" style="shape=partialRectangle;collapsible=0;dropTarget=0;pointerEvents=0;fillColor=none;points=[[0,0.5],[1,0.5]];portConstraint=eastwest;top=0;left=0;right=0;bottom=0;fontSize=12;spacing=2;horizontal=1;fontFamily=Times New Roman;" parent="YdTmAqoiLgCzOXmf9878-160" vertex="1">
                    <mxGeometry y="60" width="270" height="30" as="geometry"/>
                </mxCell>
                <mxCell id="YdTmAqoiLgCzOXmf9878-168" value="FK" style="shape=partialRectangle;overflow=hidden;connectable=0;fillColor=none;top=0;left=0;bottom=0;right=0;fontSize=12;spacing=2;horizontal=1;fontFamily=Times New Roman;" parent="YdTmAqoiLgCzOXmf9878-167" vertex="1">
                    <mxGeometry width="30" height="30" as="geometry">
                        <mxRectangle width="30" height="30" as="alternateBounds"/>
                    </mxGeometry>
                </mxCell>
                <mxCell id="YdTmAqoiLgCzOXmf9878-169" value="SalesRepresentative NUMBER NOT NULL," style="shape=partialRectangle;overflow=hidden;connectable=0;fillColor=none;top=0;left=0;bottom=0;right=0;align=left;spacingLeft=6;fontSize=12;spacing=2;horizontal=1;fontFamily=Times New Roman;" parent="YdTmAqoiLgCzOXmf9878-167" vertex="1">
                    <mxGeometry x="30" width="240" height="30" as="geometry">
                        <mxRectangle width="240" height="30" as="alternateBounds"/>
                    </mxGeometry>
                </mxCell>
                <mxCell id="YdTmAqoiLgCzOXmf9878-164" value="" style="shape=partialRectangle;collapsible=0;dropTarget=0;pointerEvents=0;fillColor=none;points=[[0,0.5],[1,0.5]];portConstraint=eastwest;top=0;left=0;right=0;bottom=0;fontSize=12;spacing=2;horizontal=1;fontFamily=Times New Roman;" parent="YdTmAqoiLgCzOXmf9878-160" vertex="1">
                    <mxGeometry y="90" width="270" height="30" as="geometry"/>
                </mxCell>
                <mxCell id="YdTmAqoiLgCzOXmf9878-165" value="" style="shape=partialRectangle;overflow=hidden;connectable=0;fillColor=none;top=0;left=0;bottom=0;right=0;fontSize=12;spacing=2;horizontal=1;fontFamily=Times New Roman;" parent="YdTmAqoiLgCzOXmf9878-164" vertex="1">
                    <mxGeometry width="30" height="30" as="geometry">
                        <mxRectangle width="30" height="30" as="alternateBounds"/>
                    </mxGeometry>
                </mxCell>
                <mxCell id="YdTmAqoiLgCzOXmf9878-166" value="CustomerName VARCHAR2(50) NOT NULL" style="shape=partialRectangle;overflow=hidden;connectable=0;fillColor=none;top=0;left=0;bottom=0;right=0;align=left;spacingLeft=6;fontSize=12;spacing=2;horizontal=1;fontFamily=Times New Roman;" parent="YdTmAqoiLgCzOXmf9878-164" vertex="1">
                    <mxGeometry x="30" width="240" height="30" as="geometry">
                        <mxRectangle width="240" height="30" as="alternateBounds"/>
                    </mxGeometry>
                </mxCell>
                <mxCell id="YdTmAqoiLgCzOXmf9878-170" value="" style="shape=partialRectangle;collapsible=0;dropTarget=0;pointerEvents=0;fillColor=none;points=[[0,0.5],[1,0.5]];portConstraint=eastwest;top=0;left=0;right=0;bottom=0;fontSize=12;spacing=2;horizontal=1;fontFamily=Times New Roman;" parent="YdTmAqoiLgCzOXmf9878-160" vertex="1">
                    <mxGeometry y="120" width="270" height="30" as="geometry"/>
                </mxCell>
                <mxCell id="YdTmAqoiLgCzOXmf9878-171" value="" style="shape=partialRectangle;overflow=hidden;connectable=0;fillColor=none;top=0;left=0;bottom=0;right=0;fontSize=12;spacing=2;horizontal=1;fontFamily=Times New Roman;" parent="YdTmAqoiLgCzOXmf9878-170" vertex="1">
                    <mxGeometry width="30" height="30" as="geometry">
                        <mxRectangle width="30" height="30" as="alternateBounds"/>
                    </mxGeometry>
                </mxCell>
                <mxCell id="YdTmAqoiLgCzOXmf9878-172" value="CustomerEmail VARCHAR2(50)" style="shape=partialRectangle;overflow=hidden;connectable=0;fillColor=none;top=0;left=0;bottom=0;right=0;align=left;spacingLeft=6;fontSize=12;spacing=2;horizontal=1;fontFamily=Times New Roman;" parent="YdTmAqoiLgCzOXmf9878-170" vertex="1">
                    <mxGeometry x="30" width="240" height="30" as="geometry">
                        <mxRectangle width="240" height="30" as="alternateBounds"/>
                    </mxGeometry>
                </mxCell>
                <mxCell id="38" value="" style="shape=partialRectangle;collapsible=0;dropTarget=0;pointerEvents=0;fillColor=none;points=[[0,0.5],[1,0.5]];portConstraint=eastwest;top=0;left=0;right=0;bottom=0;fontSize=12;spacing=2;horizontal=1;fontFamily=Times New Roman;" vertex="1" parent="YdTmAqoiLgCzOXmf9878-160">
                    <mxGeometry y="150" width="270" height="30" as="geometry"/>
                </mxCell>
                <mxCell id="39" value="" style="shape=partialRectangle;overflow=hidden;connectable=0;fillColor=none;top=0;left=0;bottom=0;right=0;fontSize=12;spacing=2;horizontal=1;fontFamily=Times New Roman;" vertex="1" parent="38">
                    <mxGeometry width="30" height="30" as="geometry">
                        <mxRectangle width="30" height="30" as="alternateBounds"/>
                    </mxGeometry>
                </mxCell>
                <mxCell id="40" value="CustomerPhone VARCHAR2(20)" style="shape=partialRectangle;overflow=hidden;connectable=0;fillColor=none;top=0;left=0;bottom=0;right=0;align=left;spacingLeft=6;fontSize=12;spacing=2;horizontal=1;fontFamily=Times New Roman;" vertex="1" parent="38">
                    <mxGeometry x="30" width="240" height="30" as="geometry">
                        <mxRectangle width="240" height="30" as="alternateBounds"/>
                    </mxGeometry>
                </mxCell>
                <mxCell id="YdTmAqoiLgCzOXmf9878-178" value="SalesOrders" style="shape=table;startSize=30;container=1;collapsible=1;childLayout=tableLayout;fixedRows=1;rowLines=0;fontStyle=1;align=center;resizeLast=1;fontSize=12;spacing=2;horizontal=1;fontFamily=Times New Roman;" parent="1" vertex="1">
                    <mxGeometry x="993" y="262" width="226" height="151.18" as="geometry"/>
                </mxCell>
                <mxCell id="YdTmAqoiLgCzOXmf9878-179" value="" style="shape=partialRectangle;collapsible=0;dropTarget=0;pointerEvents=0;fillColor=none;points=[[0,0.5],[1,0.5]];portConstraint=eastwest;top=0;left=0;right=0;bottom=1;fontSize=12;spacing=2;horizontal=1;fontFamily=Times New Roman;" parent="YdTmAqoiLgCzOXmf9878-178" vertex="1">
                    <mxGeometry y="30" width="226" height="30" as="geometry"/>
                </mxCell>
                <mxCell id="YdTmAqoiLgCzOXmf9878-180" value="PK" style="shape=partialRectangle;overflow=hidden;connectable=0;fillColor=none;top=0;left=0;bottom=0;right=0;fontStyle=1;fontSize=12;spacing=2;horizontal=1;fontFamily=Times New Roman;" parent="YdTmAqoiLgCzOXmf9878-179" vertex="1">
                    <mxGeometry width="30" height="30" as="geometry">
                        <mxRectangle width="30" height="30" as="alternateBounds"/>
                    </mxGeometry>
                </mxCell>
                <mxCell id="YdTmAqoiLgCzOXmf9878-181" value="OrderNumber NUMBER" style="shape=partialRectangle;overflow=hidden;connectable=0;fillColor=none;top=0;left=0;bottom=0;right=0;align=left;spacingLeft=6;fontStyle=5;fontSize=12;spacing=2;horizontal=1;fontFamily=Times New Roman;" parent="YdTmAqoiLgCzOXmf9878-179" vertex="1">
                    <mxGeometry x="30" width="196" height="30" as="geometry">
                        <mxRectangle width="196" height="30" as="alternateBounds"/>
                    </mxGeometry>
                </mxCell>
                <mxCell id="YdTmAqoiLgCzOXmf9878-182" value="" style="shape=partialRectangle;collapsible=0;dropTarget=0;pointerEvents=0;fillColor=none;points=[[0,0.5],[1,0.5]];portConstraint=eastwest;top=0;left=0;right=0;bottom=0;fontSize=12;spacing=2;horizontal=1;fontFamily=Times New Roman;" parent="YdTmAqoiLgCzOXmf9878-178" vertex="1">
                    <mxGeometry y="60" width="226" height="31" as="geometry"/>
                </mxCell>
                <mxCell id="YdTmAqoiLgCzOXmf9878-183" value="FK" style="shape=partialRectangle;overflow=hidden;connectable=0;fillColor=none;top=0;left=0;bottom=0;right=0;fontSize=12;spacing=2;horizontal=1;fontFamily=Times New Roman;" parent="YdTmAqoiLgCzOXmf9878-182" vertex="1">
                    <mxGeometry width="30" height="31" as="geometry">
                        <mxRectangle width="30" height="31" as="alternateBounds"/>
                    </mxGeometry>
                </mxCell>
                <mxCell id="YdTmAqoiLgCzOXmf9878-184" value="CustomerID NUMBER NOT NULL" style="shape=partialRectangle;overflow=hidden;connectable=0;fillColor=none;top=0;left=0;bottom=0;right=0;align=left;spacingLeft=6;fontSize=12;spacing=2;horizontal=1;fontFamily=Times New Roman;" parent="YdTmAqoiLgCzOXmf9878-182" vertex="1">
                    <mxGeometry x="30" width="196" height="31" as="geometry">
                        <mxRectangle width="196" height="31" as="alternateBounds"/>
                    </mxGeometry>
                </mxCell>
                <mxCell id="YdTmAqoiLgCzOXmf9878-185" value="" style="shape=partialRectangle;collapsible=0;dropTarget=0;pointerEvents=0;fillColor=none;points=[[0,0.5],[1,0.5]];portConstraint=eastwest;top=0;left=0;right=0;bottom=0;fontSize=12;spacing=2;horizontal=1;fontFamily=Times New Roman;" parent="YdTmAqoiLgCzOXmf9878-178" vertex="1">
                    <mxGeometry y="91" width="226" height="30" as="geometry"/>
                </mxCell>
                <mxCell id="YdTmAqoiLgCzOXmf9878-186" value="" style="shape=partialRectangle;overflow=hidden;connectable=0;fillColor=none;top=0;left=0;bottom=0;right=0;fontSize=12;spacing=2;horizontal=1;fontFamily=Times New Roman;" parent="YdTmAqoiLgCzOXmf9878-185" vertex="1">
                    <mxGeometry width="30" height="30" as="geometry">
                        <mxRectangle width="30" height="30" as="alternateBounds"/>
                    </mxGeometry>
                </mxCell>
                <mxCell id="YdTmAqoiLgCzOXmf9878-187" value="OrderDate DATE NOT NULL" style="shape=partialRectangle;overflow=hidden;connectable=0;fillColor=none;top=0;left=0;bottom=0;right=0;align=left;spacingLeft=6;fontSize=12;spacing=2;horizontal=1;fontFamily=Times New Roman;" parent="YdTmAqoiLgCzOXmf9878-185" vertex="1">
                    <mxGeometry x="30" width="196" height="30" as="geometry">
                        <mxRectangle width="196" height="30" as="alternateBounds"/>
                    </mxGeometry>
                </mxCell>
                <mxCell id="44" value="" style="shape=partialRectangle;collapsible=0;dropTarget=0;pointerEvents=0;fillColor=none;points=[[0,0.5],[1,0.5]];portConstraint=eastwest;top=0;left=0;right=0;bottom=0;fontSize=12;spacing=2;horizontal=1;fontFamily=Times New Roman;" vertex="1" parent="YdTmAqoiLgCzOXmf9878-178">
                    <mxGeometry y="121" width="226" height="30" as="geometry"/>
                </mxCell>
                <mxCell id="45" value="" style="shape=partialRectangle;overflow=hidden;connectable=0;fillColor=none;top=0;left=0;bottom=0;right=0;fontSize=12;spacing=2;horizontal=1;fontFamily=Times New Roman;" vertex="1" parent="44">
                    <mxGeometry width="30" height="30" as="geometry">
                        <mxRectangle width="30" height="30" as="alternateBounds"/>
                    </mxGeometry>
                </mxCell>
                <mxCell id="46" value="TotalPrice NUMBER NOT NULL" style="shape=partialRectangle;overflow=hidden;connectable=0;fillColor=none;top=0;left=0;bottom=0;right=0;align=left;spacingLeft=6;fontSize=12;spacing=2;horizontal=1;fontFamily=Times New Roman;" vertex="1" parent="44">
                    <mxGeometry x="30" width="196" height="30" as="geometry">
                        <mxRectangle width="196" height="30" as="alternateBounds"/>
                    </mxGeometry>
                </mxCell>
                <mxCell id="YdTmAqoiLgCzOXmf9878-191" value="Products" style="shape=table;startSize=30;container=1;collapsible=1;childLayout=tableLayout;fixedRows=1;rowLines=0;fontStyle=1;align=center;resizeLast=1;fontSize=12;spacing=2;horizontal=1;fontFamily=Times New Roman;" parent="1" vertex="1">
                    <mxGeometry x="677" y="747" width="265" height="150" as="geometry"/>
                </mxCell>
                <mxCell id="YdTmAqoiLgCzOXmf9878-192" value="" style="shape=partialRectangle;collapsible=0;dropTarget=0;pointerEvents=0;fillColor=none;points=[[0,0.5],[1,0.5]];portConstraint=eastwest;top=0;left=0;right=0;bottom=1;fontSize=12;spacing=2;horizontal=1;fontFamily=Times New Roman;" parent="YdTmAqoiLgCzOXmf9878-191" vertex="1">
                    <mxGeometry y="30" width="265" height="30" as="geometry"/>
                </mxCell>
                <mxCell id="YdTmAqoiLgCzOXmf9878-193" value="PK" style="shape=partialRectangle;overflow=hidden;connectable=0;fillColor=none;top=0;left=0;bottom=0;right=0;fontStyle=1;fontSize=12;spacing=2;horizontal=1;fontFamily=Times New Roman;" parent="YdTmAqoiLgCzOXmf9878-192" vertex="1">
                    <mxGeometry width="30" height="30" as="geometry">
                        <mxRectangle width="30" height="30" as="alternateBounds"/>
                    </mxGeometry>
                </mxCell>
                <mxCell id="YdTmAqoiLgCzOXmf9878-194" value="ProductID NUMBER" style="shape=partialRectangle;overflow=hidden;connectable=0;fillColor=none;top=0;left=0;bottom=0;right=0;align=left;spacingLeft=6;fontStyle=5;fontSize=12;spacing=2;horizontal=1;fontFamily=Times New Roman;" parent="YdTmAqoiLgCzOXmf9878-192" vertex="1">
                    <mxGeometry x="30" width="235" height="30" as="geometry">
                        <mxRectangle width="235" height="30" as="alternateBounds"/>
                    </mxGeometry>
                </mxCell>
                <mxCell id="YdTmAqoiLgCzOXmf9878-195" value="" style="shape=partialRectangle;collapsible=0;dropTarget=0;pointerEvents=0;fillColor=none;points=[[0,0.5],[1,0.5]];portConstraint=eastwest;top=0;left=0;right=0;bottom=0;fontSize=12;spacing=2;horizontal=1;fontFamily=Times New Roman;" parent="YdTmAqoiLgCzOXmf9878-191" vertex="1">
                    <mxGeometry y="60" width="265" height="30" as="geometry"/>
                </mxCell>
                <mxCell id="YdTmAqoiLgCzOXmf9878-196" value="" style="shape=partialRectangle;overflow=hidden;connectable=0;fillColor=none;top=0;left=0;bottom=0;right=0;fontSize=12;spacing=2;horizontal=1;fontFamily=Times New Roman;" parent="YdTmAqoiLgCzOXmf9878-195" vertex="1">
                    <mxGeometry width="30" height="30" as="geometry">
                        <mxRectangle width="30" height="30" as="alternateBounds"/>
                    </mxGeometry>
                </mxCell>
                <mxCell id="YdTmAqoiLgCzOXmf9878-197" value="ProductName VARCHAR2(20) NOT NULL" style="shape=partialRectangle;overflow=hidden;connectable=0;fillColor=none;top=0;left=0;bottom=0;right=0;align=left;spacingLeft=6;fontSize=12;spacing=2;horizontal=1;fontFamily=Times New Roman;" parent="YdTmAqoiLgCzOXmf9878-195" vertex="1">
                    <mxGeometry x="30" width="235" height="30" as="geometry">
                        <mxRectangle width="235" height="30" as="alternateBounds"/>
                    </mxGeometry>
                </mxCell>
                <mxCell id="YdTmAqoiLgCzOXmf9878-198" value="" style="shape=partialRectangle;collapsible=0;dropTarget=0;pointerEvents=0;fillColor=none;points=[[0,0.5],[1,0.5]];portConstraint=eastwest;top=0;left=0;right=0;bottom=0;fontSize=12;spacing=2;horizontal=1;fontFamily=Times New Roman;" parent="YdTmAqoiLgCzOXmf9878-191" vertex="1">
                    <mxGeometry y="90" width="265" height="30" as="geometry"/>
                </mxCell>
                <mxCell id="YdTmAqoiLgCzOXmf9878-199" value="" style="shape=partialRectangle;overflow=hidden;connectable=0;fillColor=none;top=0;left=0;bottom=0;right=0;fontSize=12;spacing=2;horizontal=1;fontFamily=Times New Roman;" parent="YdTmAqoiLgCzOXmf9878-198" vertex="1">
                    <mxGeometry width="30" height="30" as="geometry">
                        <mxRectangle width="30" height="30" as="alternateBounds"/>
                    </mxGeometry>
                </mxCell>
                <mxCell id="YdTmAqoiLgCzOXmf9878-200" value="ProductWeight NUMBER NOT NULL" style="shape=partialRectangle;overflow=hidden;connectable=0;fillColor=none;top=0;left=0;bottom=0;right=0;align=left;spacingLeft=6;fontSize=12;spacing=2;horizontal=1;fontFamily=Times New Roman;" parent="YdTmAqoiLgCzOXmf9878-198" vertex="1">
                    <mxGeometry x="30" width="235" height="30" as="geometry">
                        <mxRectangle width="235" height="30" as="alternateBounds"/>
                    </mxGeometry>
                </mxCell>
                <mxCell id="41" value="" style="shape=partialRectangle;collapsible=0;dropTarget=0;pointerEvents=0;fillColor=none;points=[[0,0.5],[1,0.5]];portConstraint=eastwest;top=0;left=0;right=0;bottom=0;fontSize=12;spacing=2;horizontal=1;fontFamily=Times New Roman;" vertex="1" parent="YdTmAqoiLgCzOXmf9878-191">
                    <mxGeometry y="120" width="265" height="30" as="geometry"/>
                </mxCell>
                <mxCell id="42" value="" style="shape=partialRectangle;overflow=hidden;connectable=0;fillColor=none;top=0;left=0;bottom=0;right=0;fontSize=12;spacing=2;horizontal=1;fontFamily=Times New Roman;" vertex="1" parent="41">
                    <mxGeometry width="30" height="30" as="geometry">
                        <mxRectangle width="30" height="30" as="alternateBounds"/>
                    </mxGeometry>
                </mxCell>
                <mxCell id="43" value="ProductPrice NUMBER NOT NULL" style="shape=partialRectangle;overflow=hidden;connectable=0;fillColor=none;top=0;left=0;bottom=0;right=0;align=left;spacingLeft=6;fontSize=12;spacing=2;horizontal=1;fontFamily=Times New Roman;" vertex="1" parent="41">
                    <mxGeometry x="30" width="235" height="30" as="geometry">
                        <mxRectangle width="235" height="30" as="alternateBounds"/>
                    </mxGeometry>
                </mxCell>
                <mxCell id="YdTmAqoiLgCzOXmf9878-201" value="Warehouses" style="shape=table;startSize=30;container=1;collapsible=1;childLayout=tableLayout;fixedRows=1;rowLines=0;fontStyle=1;align=center;resizeLast=1;fontSize=12;spacing=2;horizontal=1;fontFamily=Times New Roman;" parent="1" vertex="1">
                    <mxGeometry x="50" y="760" width="280" height="90" as="geometry"/>
                </mxCell>
                <mxCell id="YdTmAqoiLgCzOXmf9878-202" value="" style="shape=partialRectangle;collapsible=0;dropTarget=0;pointerEvents=0;fillColor=none;points=[[0,0.5],[1,0.5]];portConstraint=eastwest;top=0;left=0;right=0;bottom=1;fontSize=12;spacing=2;horizontal=1;fontFamily=Times New Roman;" parent="YdTmAqoiLgCzOXmf9878-201" vertex="1">
                    <mxGeometry y="30" width="280" height="30" as="geometry"/>
                </mxCell>
                <mxCell id="YdTmAqoiLgCzOXmf9878-203" value="PK" style="shape=partialRectangle;overflow=hidden;connectable=0;fillColor=none;top=0;left=0;bottom=0;right=0;fontStyle=1;fontSize=12;spacing=2;horizontal=1;fontFamily=Times New Roman;" parent="YdTmAqoiLgCzOXmf9878-202" vertex="1">
                    <mxGeometry width="30" height="30" as="geometry">
                        <mxRectangle width="30" height="30" as="alternateBounds"/>
                    </mxGeometry>
                </mxCell>
                <mxCell id="YdTmAqoiLgCzOXmf9878-204" value="WarehouseID NUMBER" style="shape=partialRectangle;overflow=hidden;connectable=0;fillColor=none;top=0;left=0;bottom=0;right=0;align=left;spacingLeft=6;fontStyle=5;fontSize=12;spacing=2;horizontal=1;fontFamily=Times New Roman;" parent="YdTmAqoiLgCzOXmf9878-202" vertex="1">
                    <mxGeometry x="30" width="250" height="30" as="geometry">
                        <mxRectangle width="250" height="30" as="alternateBounds"/>
                    </mxGeometry>
                </mxCell>
                <mxCell id="YdTmAqoiLgCzOXmf9878-205" value="" style="shape=partialRectangle;collapsible=0;dropTarget=0;pointerEvents=0;fillColor=none;points=[[0,0.5],[1,0.5]];portConstraint=eastwest;top=0;left=0;right=0;bottom=0;fontSize=12;spacing=2;horizontal=1;fontFamily=Times New Roman;" parent="YdTmAqoiLgCzOXmf9878-201" vertex="1">
                    <mxGeometry y="60" width="280" height="30" as="geometry"/>
                </mxCell>
                <mxCell id="YdTmAqoiLgCzOXmf9878-206" value="FK" style="shape=partialRectangle;overflow=hidden;connectable=0;fillColor=none;top=0;left=0;bottom=0;right=0;fontSize=12;spacing=2;horizontal=1;fontFamily=Times New Roman;" parent="YdTmAqoiLgCzOXmf9878-205" vertex="1">
                    <mxGeometry width="30" height="30" as="geometry">
                        <mxRectangle width="30" height="30" as="alternateBounds"/>
                    </mxGeometry>
                </mxCell>
                <mxCell id="YdTmAqoiLgCzOXmf9878-207" value="LocationCode NUMBER NOT NULL" style="shape=partialRectangle;overflow=hidden;connectable=0;fillColor=none;top=0;left=0;bottom=0;right=0;align=left;spacingLeft=6;fontSize=12;spacing=2;horizontal=1;fontFamily=Times New Roman;" parent="YdTmAqoiLgCzOXmf9878-205" vertex="1">
                    <mxGeometry x="30" width="250" height="30" as="geometry">
                        <mxRectangle width="250" height="30" as="alternateBounds"/>
                    </mxGeometry>
                </mxCell>
                <mxCell id="YdTmAqoiLgCzOXmf9878-211" value="Inventory" style="shape=table;startSize=30;container=1;collapsible=1;childLayout=tableLayout;fixedRows=1;rowLines=0;fontStyle=1;align=center;resizeLast=1;fontSize=12;spacing=2;horizontal=1;fontFamily=Times New Roman;" parent="1" vertex="1">
                    <mxGeometry x="993" y="716" width="240" height="150" as="geometry"/>
                </mxCell>
                <mxCell id="YdTmAqoiLgCzOXmf9878-212" value="" style="shape=partialRectangle;collapsible=0;dropTarget=0;pointerEvents=0;fillColor=none;points=[[0,0.5],[1,0.5]];portConstraint=eastwest;top=0;left=0;right=0;bottom=1;fontSize=12;spacing=2;horizontal=1;fontFamily=Times New Roman;" parent="YdTmAqoiLgCzOXmf9878-211" vertex="1">
                    <mxGeometry y="30" width="240" height="30" as="geometry"/>
                </mxCell>
                <mxCell id="YdTmAqoiLgCzOXmf9878-213" value="PK" style="shape=partialRectangle;overflow=hidden;connectable=0;fillColor=none;top=0;left=0;bottom=0;right=0;fontStyle=1;fontSize=12;spacing=2;horizontal=1;fontFamily=Times New Roman;" parent="YdTmAqoiLgCzOXmf9878-212" vertex="1">
                    <mxGeometry width="30" height="30" as="geometry">
                        <mxRectangle width="30" height="30" as="alternateBounds"/>
                    </mxGeometry>
                </mxCell>
                <mxCell id="YdTmAqoiLgCzOXmf9878-214" value="InventoryID NUMBER" style="shape=partialRectangle;overflow=hidden;connectable=0;fillColor=none;top=0;left=0;bottom=0;right=0;align=left;spacingLeft=6;fontStyle=5;fontSize=12;spacing=2;horizontal=1;fontFamily=Times New Roman;" parent="YdTmAqoiLgCzOXmf9878-212" vertex="1">
                    <mxGeometry x="30" width="210" height="30" as="geometry">
                        <mxRectangle width="210" height="30" as="alternateBounds"/>
                    </mxGeometry>
                </mxCell>
                <mxCell id="YdTmAqoiLgCzOXmf9878-215" value="" style="shape=partialRectangle;collapsible=0;dropTarget=0;pointerEvents=0;fillColor=none;points=[[0,0.5],[1,0.5]];portConstraint=eastwest;top=0;left=0;right=0;bottom=0;fontSize=12;spacing=2;horizontal=1;fontFamily=Times New Roman;" parent="YdTmAqoiLgCzOXmf9878-211" vertex="1">
                    <mxGeometry y="60" width="240" height="30" as="geometry"/>
                </mxCell>
                <mxCell id="YdTmAqoiLgCzOXmf9878-216" value="FK" style="shape=partialRectangle;overflow=hidden;connectable=0;fillColor=none;top=0;left=0;bottom=0;right=0;fontSize=12;spacing=2;horizontal=1;fontFamily=Times New Roman;" parent="YdTmAqoiLgCzOXmf9878-215" vertex="1">
                    <mxGeometry width="30" height="30" as="geometry">
                        <mxRectangle width="30" height="30" as="alternateBounds"/>
                    </mxGeometry>
                </mxCell>
                <mxCell id="YdTmAqoiLgCzOXmf9878-217" value="ProductID NUMBER NOT NULL" style="shape=partialRectangle;overflow=hidden;connectable=0;fillColor=none;top=0;left=0;bottom=0;right=0;align=left;spacingLeft=6;fontSize=12;spacing=2;horizontal=1;fontFamily=Times New Roman;" parent="YdTmAqoiLgCzOXmf9878-215" vertex="1">
                    <mxGeometry x="30" width="210" height="30" as="geometry">
                        <mxRectangle width="210" height="30" as="alternateBounds"/>
                    </mxGeometry>
                </mxCell>
                <mxCell id="YdTmAqoiLgCzOXmf9878-218" value="" style="shape=partialRectangle;collapsible=0;dropTarget=0;pointerEvents=0;fillColor=none;points=[[0,0.5],[1,0.5]];portConstraint=eastwest;top=0;left=0;right=0;bottom=0;fontSize=12;spacing=2;horizontal=1;fontFamily=Times New Roman;" parent="YdTmAqoiLgCzOXmf9878-211" vertex="1">
                    <mxGeometry y="90" width="240" height="30" as="geometry"/>
                </mxCell>
                <mxCell id="YdTmAqoiLgCzOXmf9878-219" value="FK" style="shape=partialRectangle;overflow=hidden;connectable=0;fillColor=none;top=0;left=0;bottom=0;right=0;fontSize=12;spacing=2;horizontal=1;fontFamily=Times New Roman;" parent="YdTmAqoiLgCzOXmf9878-218" vertex="1">
                    <mxGeometry width="30" height="30" as="geometry">
                        <mxRectangle width="30" height="30" as="alternateBounds"/>
                    </mxGeometry>
                </mxCell>
                <mxCell id="YdTmAqoiLgCzOXmf9878-220" value="WarehouseID NUMBER NOT NULL" style="shape=partialRectangle;overflow=hidden;connectable=0;fillColor=none;top=0;left=0;bottom=0;right=0;align=left;spacingLeft=6;fontSize=12;spacing=2;horizontal=1;fontFamily=Times New Roman;" parent="YdTmAqoiLgCzOXmf9878-218" vertex="1">
                    <mxGeometry x="30" width="210" height="30" as="geometry">
                        <mxRectangle width="210" height="30" as="alternateBounds"/>
                    </mxGeometry>
                </mxCell>
                <mxCell id="YdTmAqoiLgCzOXmf9878-221" value="" style="shape=partialRectangle;collapsible=0;dropTarget=0;pointerEvents=0;fillColor=none;points=[[0,0.5],[1,0.5]];portConstraint=eastwest;top=0;left=0;right=0;bottom=0;fontSize=12;spacing=2;horizontal=1;fontFamily=Times New Roman;" parent="YdTmAqoiLgCzOXmf9878-211" vertex="1">
                    <mxGeometry y="120" width="240" height="30" as="geometry"/>
                </mxCell>
                <mxCell id="YdTmAqoiLgCzOXmf9878-222" value="" style="shape=partialRectangle;overflow=hidden;connectable=0;fillColor=none;top=0;left=0;bottom=0;right=0;fontSize=12;spacing=2;horizontal=1;fontFamily=Times New Roman;" parent="YdTmAqoiLgCzOXmf9878-221" vertex="1">
                    <mxGeometry width="30" height="30" as="geometry">
                        <mxRectangle width="30" height="30" as="alternateBounds"/>
                    </mxGeometry>
                </mxCell>
                <mxCell id="YdTmAqoiLgCzOXmf9878-223" value="Quantity NUMBER NOT NULL" style="shape=partialRectangle;overflow=hidden;connectable=0;fillColor=none;top=0;left=0;bottom=0;right=0;align=left;spacingLeft=6;fontSize=12;spacing=2;horizontal=1;fontFamily=Times New Roman;" parent="YdTmAqoiLgCzOXmf9878-221" vertex="1">
                    <mxGeometry x="30" width="210" height="30" as="geometry">
                        <mxRectangle width="210" height="30" as="alternateBounds"/>
                    </mxGeometry>
                </mxCell>
                <mxCell id="YdTmAqoiLgCzOXmf9878-227" value="OrdersDetails" style="shape=table;startSize=30;container=1;collapsible=1;childLayout=tableLayout;fixedRows=1;rowLines=0;fontStyle=1;align=center;resizeLast=1;fontSize=12;spacing=2;horizontal=1;fontFamily=Times New Roman;" parent="1" vertex="1">
                    <mxGeometry x="990" y="475" width="240" height="180" as="geometry"/>
                </mxCell>
                <mxCell id="YdTmAqoiLgCzOXmf9878-228" value="" style="shape=partialRectangle;collapsible=0;dropTarget=0;pointerEvents=0;fillColor=none;points=[[0,0.5],[1,0.5]];portConstraint=eastwest;top=0;left=0;right=0;bottom=1;fontSize=12;spacing=2;horizontal=1;fontFamily=Times New Roman;" parent="YdTmAqoiLgCzOXmf9878-227" vertex="1">
                    <mxGeometry y="30" width="240" height="30" as="geometry"/>
                </mxCell>
                <mxCell id="YdTmAqoiLgCzOXmf9878-229" value="PK" style="shape=partialRectangle;overflow=hidden;connectable=0;fillColor=none;top=0;left=0;bottom=0;right=0;fontStyle=1;fontSize=12;spacing=2;horizontal=1;fontFamily=Times New Roman;" parent="YdTmAqoiLgCzOXmf9878-228" vertex="1">
                    <mxGeometry width="30" height="30" as="geometry">
                        <mxRectangle width="30" height="30" as="alternateBounds"/>
                    </mxGeometry>
                </mxCell>
                <mxCell id="YdTmAqoiLgCzOXmf9878-230" value="OrderNumber NUMBER" style="shape=partialRectangle;overflow=hidden;connectable=0;fillColor=none;top=0;left=0;bottom=0;right=0;align=left;spacingLeft=6;fontStyle=5;fontSize=12;spacing=2;horizontal=1;fontFamily=Times New Roman;" parent="YdTmAqoiLgCzOXmf9878-228" vertex="1">
                    <mxGeometry x="30" width="210" height="30" as="geometry">
                        <mxRectangle width="210" height="30" as="alternateBounds"/>
                    </mxGeometry>
                </mxCell>
                <mxCell id="47" value="" style="shape=partialRectangle;collapsible=0;dropTarget=0;pointerEvents=0;fillColor=none;points=[[0,0.5],[1,0.5]];portConstraint=eastwest;top=0;left=0;right=0;bottom=1;fontSize=12;spacing=2;horizontal=1;fontFamily=Times New Roman;" vertex="1" parent="YdTmAqoiLgCzOXmf9878-227">
                    <mxGeometry y="60" width="240" height="30" as="geometry"/>
                </mxCell>
                <mxCell id="48" value="PK" style="shape=partialRectangle;overflow=hidden;connectable=0;fillColor=none;top=0;left=0;bottom=0;right=0;fontStyle=1;fontSize=12;spacing=2;horizontal=1;fontFamily=Times New Roman;" vertex="1" parent="47">
                    <mxGeometry width="30" height="30" as="geometry">
                        <mxRectangle width="30" height="30" as="alternateBounds"/>
                    </mxGeometry>
                </mxCell>
                <mxCell id="49" value="ProductID NUMBER" style="shape=partialRectangle;overflow=hidden;connectable=0;fillColor=none;top=0;left=0;bottom=0;right=0;align=left;spacingLeft=6;fontStyle=5;fontSize=12;spacing=2;horizontal=1;fontFamily=Times New Roman;" vertex="1" parent="47">
                    <mxGeometry x="30" width="210" height="30" as="geometry">
                        <mxRectangle width="210" height="30" as="alternateBounds"/>
                    </mxGeometry>
                </mxCell>
                <mxCell id="YdTmAqoiLgCzOXmf9878-234" value="" style="shape=partialRectangle;collapsible=0;dropTarget=0;pointerEvents=0;fillColor=none;points=[[0,0.5],[1,0.5]];portConstraint=eastwest;top=0;left=0;right=0;bottom=0;fontSize=12;spacing=2;horizontal=1;fontFamily=Times New Roman;" parent="YdTmAqoiLgCzOXmf9878-227" vertex="1">
                    <mxGeometry y="90" width="240" height="30" as="geometry"/>
                </mxCell>
                <mxCell id="YdTmAqoiLgCzOXmf9878-235" value="FK" style="shape=partialRectangle;overflow=hidden;connectable=0;fillColor=none;top=0;left=0;bottom=0;right=0;fontSize=12;spacing=2;horizontal=1;fontFamily=Times New Roman;" parent="YdTmAqoiLgCzOXmf9878-234" vertex="1">
                    <mxGeometry width="30" height="30" as="geometry">
                        <mxRectangle width="30" height="30" as="alternateBounds"/>
                    </mxGeometry>
                </mxCell>
                <mxCell id="YdTmAqoiLgCzOXmf9878-236" value="OrderNumber NUMBER" style="shape=partialRectangle;overflow=hidden;connectable=0;fillColor=none;top=0;left=0;bottom=0;right=0;align=left;spacingLeft=6;fontSize=12;spacing=2;horizontal=1;fontFamily=Times New Roman;" parent="YdTmAqoiLgCzOXmf9878-234" vertex="1">
                    <mxGeometry x="30" width="210" height="30" as="geometry">
                        <mxRectangle width="210" height="30" as="alternateBounds"/>
                    </mxGeometry>
                </mxCell>
                <mxCell id="YdTmAqoiLgCzOXmf9878-231" value="" style="shape=partialRectangle;collapsible=0;dropTarget=0;pointerEvents=0;fillColor=none;points=[[0,0.5],[1,0.5]];portConstraint=eastwest;top=0;left=0;right=0;bottom=0;fontSize=12;spacing=2;horizontal=1;fontFamily=Times New Roman;" parent="YdTmAqoiLgCzOXmf9878-227" vertex="1">
                    <mxGeometry y="120" width="240" height="30" as="geometry"/>
                </mxCell>
                <mxCell id="YdTmAqoiLgCzOXmf9878-232" value="FK" style="shape=partialRectangle;overflow=hidden;connectable=0;fillColor=none;top=0;left=0;bottom=0;right=0;fontSize=12;spacing=2;horizontal=1;fontFamily=Times New Roman;" parent="YdTmAqoiLgCzOXmf9878-231" vertex="1">
                    <mxGeometry width="30" height="30" as="geometry">
                        <mxRectangle width="30" height="30" as="alternateBounds"/>
                    </mxGeometry>
                </mxCell>
                <mxCell id="YdTmAqoiLgCzOXmf9878-233" value="Quantity NUMBER NOT NULL" style="shape=partialRectangle;overflow=hidden;connectable=0;fillColor=none;top=0;left=0;bottom=0;right=0;align=left;spacingLeft=6;fontSize=12;spacing=2;horizontal=1;fontFamily=Times New Roman;" parent="YdTmAqoiLgCzOXmf9878-231" vertex="1">
                    <mxGeometry x="30" width="210" height="30" as="geometry">
                        <mxRectangle width="210" height="30" as="alternateBounds"/>
                    </mxGeometry>
                </mxCell>
                <mxCell id="YdTmAqoiLgCzOXmf9878-237" value="" style="shape=partialRectangle;collapsible=0;dropTarget=0;pointerEvents=0;fillColor=none;points=[[0,0.5],[1,0.5]];portConstraint=eastwest;top=0;left=0;right=0;bottom=0;fontSize=12;spacing=2;horizontal=1;fontFamily=Times New Roman;" parent="YdTmAqoiLgCzOXmf9878-227" vertex="1">
                    <mxGeometry y="150" width="240" height="30" as="geometry"/>
                </mxCell>
                <mxCell id="YdTmAqoiLgCzOXmf9878-238" value="" style="shape=partialRectangle;overflow=hidden;connectable=0;fillColor=none;top=0;left=0;bottom=0;right=0;fontSize=12;spacing=2;horizontal=1;fontFamily=Times New Roman;" parent="YdTmAqoiLgCzOXmf9878-237" vertex="1">
                    <mxGeometry width="30" height="30" as="geometry">
                        <mxRectangle width="30" height="30" as="alternateBounds"/>
                    </mxGeometry>
                </mxCell>
                <mxCell id="YdTmAqoiLgCzOXmf9878-239" value="SubTotal NUMBER NOT NULL" style="shape=partialRectangle;overflow=hidden;connectable=0;fillColor=none;top=0;left=0;bottom=0;right=0;align=left;spacingLeft=6;fontSize=12;spacing=2;horizontal=1;fontFamily=Times New Roman;" parent="YdTmAqoiLgCzOXmf9878-237" vertex="1">
                    <mxGeometry x="30" width="210" height="30" as="geometry">
                        <mxRectangle width="210" height="30" as="alternateBounds"/>
                    </mxGeometry>
                </mxCell>
                <mxCell id="YdTmAqoiLgCzOXmf9878-246" value="ProductTransfers" style="shape=table;startSize=30;container=1;collapsible=1;childLayout=tableLayout;fixedRows=1;rowLines=0;fontStyle=1;align=center;resizeLast=1;fontSize=12;spacing=2;horizontal=1;fontFamily=Times New Roman;" parent="1" vertex="1">
                    <mxGeometry x="50" y="511" width="257" height="210" as="geometry"/>
                </mxCell>
                <mxCell id="YdTmAqoiLgCzOXmf9878-247" value="" style="shape=partialRectangle;collapsible=0;dropTarget=0;pointerEvents=0;fillColor=none;points=[[0,0.5],[1,0.5]];portConstraint=eastwest;top=0;left=0;right=0;bottom=1;fontSize=12;spacing=2;horizontal=1;fontFamily=Times New Roman;" parent="YdTmAqoiLgCzOXmf9878-246" vertex="1">
                    <mxGeometry y="30" width="257" height="30" as="geometry"/>
                </mxCell>
                <mxCell id="YdTmAqoiLgCzOXmf9878-248" value="PK" style="shape=partialRectangle;overflow=hidden;connectable=0;fillColor=none;top=0;left=0;bottom=0;right=0;fontStyle=1;fontSize=12;spacing=2;horizontal=1;fontFamily=Times New Roman;" parent="YdTmAqoiLgCzOXmf9878-247" vertex="1">
                    <mxGeometry width="30" height="30" as="geometry">
                        <mxRectangle width="30" height="30" as="alternateBounds"/>
                    </mxGeometry>
                </mxCell>
                <mxCell id="YdTmAqoiLgCzOXmf9878-249" value="TransferID NUMBER" style="shape=partialRectangle;overflow=hidden;connectable=0;fillColor=none;top=0;left=0;bottom=0;right=0;align=left;spacingLeft=6;fontStyle=5;fontSize=12;spacing=2;horizontal=1;fontFamily=Times New Roman;" parent="YdTmAqoiLgCzOXmf9878-247" vertex="1">
                    <mxGeometry x="30" width="227" height="30" as="geometry">
                        <mxRectangle width="227" height="30" as="alternateBounds"/>
                    </mxGeometry>
                </mxCell>
                <mxCell id="YdTmAqoiLgCzOXmf9878-250" value="" style="shape=partialRectangle;collapsible=0;dropTarget=0;pointerEvents=0;fillColor=none;points=[[0,0.5],[1,0.5]];portConstraint=eastwest;top=0;left=0;right=0;bottom=0;fontSize=12;spacing=2;horizontal=1;fontFamily=Times New Roman;" parent="YdTmAqoiLgCzOXmf9878-246" vertex="1">
                    <mxGeometry y="60" width="257" height="30" as="geometry"/>
                </mxCell>
                <mxCell id="YdTmAqoiLgCzOXmf9878-251" value="FK" style="shape=partialRectangle;overflow=hidden;connectable=0;fillColor=none;top=0;left=0;bottom=0;right=0;fontSize=12;spacing=2;horizontal=1;fontFamily=Times New Roman;" parent="YdTmAqoiLgCzOXmf9878-250" vertex="1">
                    <mxGeometry width="30" height="30" as="geometry">
                        <mxRectangle width="30" height="30" as="alternateBounds"/>
                    </mxGeometry>
                </mxCell>
                <mxCell id="YdTmAqoiLgCzOXmf9878-252" value="ProductID NUMBER NOT NULL" style="shape=partialRectangle;overflow=hidden;connectable=0;fillColor=none;top=0;left=0;bottom=0;right=0;align=left;spacingLeft=6;fontSize=12;spacing=2;horizontal=1;fontFamily=Times New Roman;" parent="YdTmAqoiLgCzOXmf9878-250" vertex="1">
                    <mxGeometry x="30" width="227" height="30" as="geometry">
                        <mxRectangle width="227" height="30" as="alternateBounds"/>
                    </mxGeometry>
                </mxCell>
                <mxCell id="YdTmAqoiLgCzOXmf9878-253" value="" style="shape=partialRectangle;collapsible=0;dropTarget=0;pointerEvents=0;fillColor=none;points=[[0,0.5],[1,0.5]];portConstraint=eastwest;top=0;left=0;right=0;bottom=0;fontSize=12;spacing=2;horizontal=1;fontFamily=Times New Roman;" parent="YdTmAqoiLgCzOXmf9878-246" vertex="1">
                    <mxGeometry y="90" width="257" height="30" as="geometry"/>
                </mxCell>
                <mxCell id="YdTmAqoiLgCzOXmf9878-254" value="FK" style="shape=partialRectangle;overflow=hidden;connectable=0;fillColor=none;top=0;left=0;bottom=0;right=0;fontSize=12;spacing=2;horizontal=1;fontFamily=Times New Roman;" parent="YdTmAqoiLgCzOXmf9878-253" vertex="1">
                    <mxGeometry width="30" height="30" as="geometry">
                        <mxRectangle width="30" height="30" as="alternateBounds"/>
                    </mxGeometry>
                </mxCell>
                <mxCell id="YdTmAqoiLgCzOXmf9878-255" value="FromWarehouseID NUMBER NOT NULL" style="shape=partialRectangle;overflow=hidden;connectable=0;fillColor=none;top=0;left=0;bottom=0;right=0;align=left;spacingLeft=6;fontSize=12;spacing=2;horizontal=1;fontFamily=Times New Roman;" parent="YdTmAqoiLgCzOXmf9878-253" vertex="1">
                    <mxGeometry x="30" width="227" height="30" as="geometry">
                        <mxRectangle width="227" height="30" as="alternateBounds"/>
                    </mxGeometry>
                </mxCell>
                <mxCell id="YdTmAqoiLgCzOXmf9878-259" value="" style="shape=partialRectangle;collapsible=0;dropTarget=0;pointerEvents=0;fillColor=none;points=[[0,0.5],[1,0.5]];portConstraint=eastwest;top=0;left=0;right=0;bottom=0;fontSize=12;spacing=2;horizontal=1;fontFamily=Times New Roman;" parent="YdTmAqoiLgCzOXmf9878-246" vertex="1">
                    <mxGeometry y="120" width="257" height="30" as="geometry"/>
                </mxCell>
                <mxCell id="YdTmAqoiLgCzOXmf9878-260" value="FK" style="shape=partialRectangle;overflow=hidden;connectable=0;fillColor=none;top=0;left=0;bottom=0;right=0;fontSize=12;spacing=2;horizontal=1;fontFamily=Times New Roman;" parent="YdTmAqoiLgCzOXmf9878-259" vertex="1">
                    <mxGeometry width="30" height="30" as="geometry">
                        <mxRectangle width="30" height="30" as="alternateBounds"/>
                    </mxGeometry>
                </mxCell>
                <mxCell id="YdTmAqoiLgCzOXmf9878-261" value="ToWarehouseID NUMBER NOT NULL" style="shape=partialRectangle;overflow=hidden;connectable=0;fillColor=none;top=0;left=0;bottom=0;right=0;align=left;spacingLeft=6;fontSize=12;spacing=2;horizontal=1;fontFamily=Times New Roman;" parent="YdTmAqoiLgCzOXmf9878-259" vertex="1">
                    <mxGeometry x="30" width="227" height="30" as="geometry">
                        <mxRectangle width="227" height="30" as="alternateBounds"/>
                    </mxGeometry>
                </mxCell>
                <mxCell id="YdTmAqoiLgCzOXmf9878-262" value="" style="shape=partialRectangle;collapsible=0;dropTarget=0;pointerEvents=0;fillColor=none;points=[[0,0.5],[1,0.5]];portConstraint=eastwest;top=0;left=0;right=0;bottom=0;fontSize=12;spacing=2;horizontal=1;fontFamily=Times New Roman;" parent="YdTmAqoiLgCzOXmf9878-246" vertex="1">
                    <mxGeometry y="150" width="257" height="30" as="geometry"/>
                </mxCell>
                <mxCell id="YdTmAqoiLgCzOXmf9878-263" value="" style="shape=partialRectangle;overflow=hidden;connectable=0;fillColor=none;top=0;left=0;bottom=0;right=0;fontSize=12;spacing=2;horizontal=1;fontFamily=Times New Roman;" parent="YdTmAqoiLgCzOXmf9878-262" vertex="1">
                    <mxGeometry width="30" height="30" as="geometry">
                        <mxRectangle width="30" height="30" as="alternateBounds"/>
                    </mxGeometry>
                </mxCell>
                <mxCell id="YdTmAqoiLgCzOXmf9878-264" value="Quantity NUMBER NOT NULL" style="shape=partialRectangle;overflow=hidden;connectable=0;fillColor=none;top=0;left=0;bottom=0;right=0;align=left;spacingLeft=6;fontSize=12;spacing=2;horizontal=1;fontFamily=Times New Roman;" parent="YdTmAqoiLgCzOXmf9878-262" vertex="1">
                    <mxGeometry x="30" width="227" height="30" as="geometry">
                        <mxRectangle width="227" height="30" as="alternateBounds"/>
                    </mxGeometry>
                </mxCell>
                <mxCell id="YdTmAqoiLgCzOXmf9878-265" value="" style="shape=partialRectangle;collapsible=0;dropTarget=0;pointerEvents=0;fillColor=none;points=[[0,0.5],[1,0.5]];portConstraint=eastwest;top=0;left=0;right=0;bottom=0;fontSize=12;spacing=2;horizontal=1;fontFamily=Times New Roman;" parent="YdTmAqoiLgCzOXmf9878-246" vertex="1">
                    <mxGeometry y="180" width="257" height="30" as="geometry"/>
                </mxCell>
                <mxCell id="YdTmAqoiLgCzOXmf9878-266" value="" style="shape=partialRectangle;overflow=hidden;connectable=0;fillColor=none;top=0;left=0;bottom=0;right=0;fontSize=12;spacing=2;horizontal=1;fontFamily=Times New Roman;" parent="YdTmAqoiLgCzOXmf9878-265" vertex="1">
                    <mxGeometry width="30" height="30" as="geometry">
                        <mxRectangle width="30" height="30" as="alternateBounds"/>
                    </mxGeometry>
                </mxCell>
                <mxCell id="YdTmAqoiLgCzOXmf9878-267" value="TransferDate TIMESTAMP NOT NULL" style="shape=partialRectangle;overflow=hidden;connectable=0;fillColor=none;top=0;left=0;bottom=0;right=0;align=left;spacingLeft=6;fontSize=12;spacing=2;horizontal=1;fontFamily=Times New Roman;" parent="YdTmAqoiLgCzOXmf9878-265" vertex="1">
                    <mxGeometry x="30" width="227" height="30" as="geometry">
                        <mxRectangle width="227" height="30" as="alternateBounds"/>
                    </mxGeometry>
                </mxCell>
                <mxCell id="YdTmAqoiLgCzOXmf9878-268" value="EmployeeTransfers" style="shape=table;startSize=30;container=1;collapsible=1;childLayout=tableLayout;fixedRows=1;rowLines=0;fontStyle=1;align=center;resizeLast=1;fontSize=12;spacing=2;horizontal=1;fontFamily=Times New Roman;" parent="1" vertex="1">
                    <mxGeometry x="361" y="357" width="284" height="180" as="geometry"/>
                </mxCell>
                <mxCell id="YdTmAqoiLgCzOXmf9878-269" value="" style="shape=partialRectangle;collapsible=0;dropTarget=0;pointerEvents=0;fillColor=none;points=[[0,0.5],[1,0.5]];portConstraint=eastwest;top=0;left=0;right=0;bottom=1;fontSize=12;spacing=2;horizontal=1;fontFamily=Times New Roman;" parent="YdTmAqoiLgCzOXmf9878-268" vertex="1">
                    <mxGeometry y="30" width="284" height="30" as="geometry"/>
                </mxCell>
                <mxCell id="YdTmAqoiLgCzOXmf9878-270" value="PK" style="shape=partialRectangle;overflow=hidden;connectable=0;fillColor=none;top=0;left=0;bottom=0;right=0;fontStyle=1;fontSize=12;spacing=2;horizontal=1;fontFamily=Times New Roman;" parent="YdTmAqoiLgCzOXmf9878-269" vertex="1">
                    <mxGeometry width="30" height="30" as="geometry">
                        <mxRectangle width="30" height="30" as="alternateBounds"/>
                    </mxGeometry>
                </mxCell>
                <mxCell id="YdTmAqoiLgCzOXmf9878-271" value="TransferID NUMBER" style="shape=partialRectangle;overflow=hidden;connectable=0;fillColor=none;top=0;left=0;bottom=0;right=0;align=left;spacingLeft=6;fontStyle=5;fontSize=12;spacing=2;horizontal=1;fontFamily=Times New Roman;" parent="YdTmAqoiLgCzOXmf9878-269" vertex="1">
                    <mxGeometry x="30" width="254" height="30" as="geometry">
                        <mxRectangle width="254" height="30" as="alternateBounds"/>
                    </mxGeometry>
                </mxCell>
                <mxCell id="YdTmAqoiLgCzOXmf9878-272" value="" style="shape=partialRectangle;collapsible=0;dropTarget=0;pointerEvents=0;fillColor=none;points=[[0,0.5],[1,0.5]];portConstraint=eastwest;top=0;left=0;right=0;bottom=0;fontSize=12;spacing=2;horizontal=1;fontFamily=Times New Roman;" parent="YdTmAqoiLgCzOXmf9878-268" vertex="1">
                    <mxGeometry y="60" width="284" height="30" as="geometry"/>
                </mxCell>
                <mxCell id="YdTmAqoiLgCzOXmf9878-273" value="FK" style="shape=partialRectangle;overflow=hidden;connectable=0;fillColor=none;top=0;left=0;bottom=0;right=0;fontSize=12;spacing=2;horizontal=1;fontFamily=Times New Roman;" parent="YdTmAqoiLgCzOXmf9878-272" vertex="1">
                    <mxGeometry width="30" height="30" as="geometry">
                        <mxRectangle width="30" height="30" as="alternateBounds"/>
                    </mxGeometry>
                </mxCell>
                <mxCell id="YdTmAqoiLgCzOXmf9878-274" value="EmployeeID NUMBER NOT NULL" style="shape=partialRectangle;overflow=hidden;connectable=0;fillColor=none;top=0;left=0;bottom=0;right=0;align=left;spacingLeft=6;fontSize=12;spacing=2;horizontal=1;fontFamily=Times New Roman;" parent="YdTmAqoiLgCzOXmf9878-272" vertex="1">
                    <mxGeometry x="30" width="254" height="30" as="geometry">
                        <mxRectangle width="254" height="30" as="alternateBounds"/>
                    </mxGeometry>
                </mxCell>
                <mxCell id="YdTmAqoiLgCzOXmf9878-284" value="" style="shape=partialRectangle;collapsible=0;dropTarget=0;pointerEvents=0;fillColor=none;points=[[0,0.5],[1,0.5]];portConstraint=eastwest;top=0;left=0;right=0;bottom=0;fontSize=12;spacing=2;horizontal=1;fontFamily=Times New Roman;" parent="YdTmAqoiLgCzOXmf9878-268" vertex="1">
                    <mxGeometry y="90" width="284" height="30" as="geometry"/>
                </mxCell>
                <mxCell id="YdTmAqoiLgCzOXmf9878-285" value="FK" style="shape=partialRectangle;overflow=hidden;connectable=0;fillColor=none;top=0;left=0;bottom=0;right=0;fontSize=12;spacing=2;horizontal=1;fontFamily=Times New Roman;" parent="YdTmAqoiLgCzOXmf9878-284" vertex="1">
                    <mxGeometry width="30" height="30" as="geometry">
                        <mxRectangle width="30" height="30" as="alternateBounds"/>
                    </mxGeometry>
                </mxCell>
                <mxCell id="YdTmAqoiLgCzOXmf9878-286" value="FromDepartmentNumber NUMBER NOT NULL" style="shape=partialRectangle;overflow=hidden;connectable=0;fillColor=none;top=0;left=0;bottom=0;right=0;align=left;spacingLeft=6;fontSize=12;spacing=2;horizontal=1;fontFamily=Times New Roman;" parent="YdTmAqoiLgCzOXmf9878-284" vertex="1">
                    <mxGeometry x="30" width="254" height="30" as="geometry">
                        <mxRectangle width="254" height="30" as="alternateBounds"/>
                    </mxGeometry>
                </mxCell>
                <mxCell id="YdTmAqoiLgCzOXmf9878-275" value="" style="shape=partialRectangle;collapsible=0;dropTarget=0;pointerEvents=0;fillColor=none;points=[[0,0.5],[1,0.5]];portConstraint=eastwest;top=0;left=0;right=0;bottom=0;fontSize=12;spacing=2;horizontal=1;fontFamily=Times New Roman;" parent="YdTmAqoiLgCzOXmf9878-268" vertex="1">
                    <mxGeometry y="120" width="284" height="30" as="geometry"/>
                </mxCell>
                <mxCell id="YdTmAqoiLgCzOXmf9878-276" value="FK" style="shape=partialRectangle;overflow=hidden;connectable=0;fillColor=none;top=0;left=0;bottom=0;right=0;fontSize=12;spacing=2;horizontal=1;fontFamily=Times New Roman;" parent="YdTmAqoiLgCzOXmf9878-275" vertex="1">
                    <mxGeometry width="30" height="30" as="geometry">
                        <mxRectangle width="30" height="30" as="alternateBounds"/>
                    </mxGeometry>
                </mxCell>
                <mxCell id="YdTmAqoiLgCzOXmf9878-277" value="ToDepartmentNumber NUMBER NOT NULL" style="shape=partialRectangle;overflow=hidden;connectable=0;fillColor=none;top=0;left=0;bottom=0;right=0;align=left;spacingLeft=6;fontSize=12;spacing=2;horizontal=1;fontFamily=Times New Roman;" parent="YdTmAqoiLgCzOXmf9878-275" vertex="1">
                    <mxGeometry x="30" width="254" height="30" as="geometry">
                        <mxRectangle width="254" height="30" as="alternateBounds"/>
                    </mxGeometry>
                </mxCell>
                <mxCell id="YdTmAqoiLgCzOXmf9878-278" value="" style="shape=partialRectangle;collapsible=0;dropTarget=0;pointerEvents=0;fillColor=none;points=[[0,0.5],[1,0.5]];portConstraint=eastwest;top=0;left=0;right=0;bottom=0;fontSize=12;spacing=2;horizontal=1;fontFamily=Times New Roman;" parent="YdTmAqoiLgCzOXmf9878-268" vertex="1">
                    <mxGeometry y="150" width="284" height="30" as="geometry"/>
                </mxCell>
                <mxCell id="YdTmAqoiLgCzOXmf9878-279" value="" style="shape=partialRectangle;overflow=hidden;connectable=0;fillColor=none;top=0;left=0;bottom=0;right=0;fontSize=12;spacing=2;horizontal=1;fontFamily=Times New Roman;" parent="YdTmAqoiLgCzOXmf9878-278" vertex="1">
                    <mxGeometry width="30" height="30" as="geometry">
                        <mxRectangle width="30" height="30" as="alternateBounds"/>
                    </mxGeometry>
                </mxCell>
                <mxCell id="YdTmAqoiLgCzOXmf9878-280" value="TransferDate DATE NOT NULL" style="shape=partialRectangle;overflow=hidden;connectable=0;fillColor=none;top=0;left=0;bottom=0;right=0;align=left;spacingLeft=6;fontSize=12;spacing=2;horizontal=1;fontFamily=Times New Roman;" parent="YdTmAqoiLgCzOXmf9878-278" vertex="1">
                    <mxGeometry x="30" width="254" height="30" as="geometry">
                        <mxRectangle width="254" height="30" as="alternateBounds"/>
                    </mxGeometry>
                </mxCell>
                <mxCell id="51" value="" style="fontSize=12;html=1;endArrow=ERzeroToMany;startArrow=ERmandOne;fontFamily=Times New Roman;exitX=0;exitY=0.5;exitDx=0;exitDy=0;elbow=vertical;entryX=1;entryY=0.5;entryDx=0;entryDy=0;" edge="1" parent="1" source="YdTmAqoiLgCzOXmf9878-74" target="YdTmAqoiLgCzOXmf9878-35">
                    <mxGeometry width="100" height="100" relative="1" as="geometry">
                        <mxPoint x="725" y="134" as="sourcePoint"/>
                        <mxPoint x="624" y="52" as="targetPoint"/>
                    </mxGeometry>
                </mxCell>
                <mxCell id="52" value="" style="edgeStyle=elbowEdgeStyle;fontSize=12;html=1;endArrow=ERoneToMany;startArrow=ERmandOne;fontFamily=Times New Roman;elbow=vertical;exitX=1;exitY=0.25;exitDx=0;exitDy=0;entryX=1;entryY=0.5;entryDx=0;entryDy=0;" edge="1" parent="1" source="YdTmAqoiLgCzOXmf9878-1" target="YdTmAqoiLgCzOXmf9878-132">
                    <mxGeometry width="100" height="100" relative="1" as="geometry">
                        <mxPoint x="712" y="223" as="sourcePoint"/>
                        <mxPoint x="812" y="123" as="targetPoint"/>
                        <Array as="points">
                            <mxPoint x="666" y="203"/>
                        </Array>
                    </mxGeometry>
                </mxCell>
                <mxCell id="53" value="" style="edgeStyle=elbowEdgeStyle;fontSize=12;html=1;endArrow=ERoneToMany;startArrow=ERmandOne;fontFamily=Times New Roman;entryX=0;entryY=0.5;entryDx=0;entryDy=0;exitX=1;exitY=0.5;exitDx=0;exitDy=0;" edge="1" parent="1" source="YdTmAqoiLgCzOXmf9878-8" target="YdTmAqoiLgCzOXmf9878-92">
                    <mxGeometry width="100" height="100" relative="1" as="geometry">
                        <mxPoint x="737" y="243" as="sourcePoint"/>
                        <mxPoint x="705" y="23" as="targetPoint"/>
                    </mxGeometry>
                </mxCell>
                <mxCell id="54" value="" style="edgeStyle=elbowEdgeStyle;fontSize=12;html=1;endArrow=ERzeroToMany;startArrow=ERmandOne;fontFamily=Times New Roman;exitX=0;exitY=0.5;exitDx=0;exitDy=0;entryX=0;entryY=0.5;entryDx=0;entryDy=0;elbow=vertical;" edge="1" parent="1" source="YdTmAqoiLgCzOXmf9878-8" target="YdTmAqoiLgCzOXmf9878-269">
                    <mxGeometry width="100" height="100" relative="1" as="geometry">
                        <mxPoint x="940" y="287" as="sourcePoint"/>
                        <mxPoint x="437" y="287" as="targetPoint"/>
                        <Array as="points">
                            <mxPoint x="341" y="360"/>
                        </Array>
                    </mxGeometry>
                </mxCell>
                <mxCell id="55" value="" style="edgeStyle=elbowEdgeStyle;fontSize=12;html=1;endArrow=ERoneToMany;startArrow=ERmandOne;fontFamily=Times New Roman;exitX=0;exitY=0.25;exitDx=0;exitDy=0;entryX=1;entryY=0.25;entryDx=0;entryDy=0;" edge="1" parent="1" source="YdTmAqoiLgCzOXmf9878-1" target="YdTmAqoiLgCzOXmf9878-47">
                    <mxGeometry width="100" height="100" relative="1" as="geometry">
                        <mxPoint x="631" y="304" as="sourcePoint"/>
                        <mxPoint x="349" y="267" as="targetPoint"/>
                    </mxGeometry>
                </mxCell>
                <mxCell id="57" value="" style="edgeStyle=elbowEdgeStyle;fontSize=12;html=1;endArrow=ERoneToMany;startArrow=ERzeroToOne;fontFamily=Times New Roman;exitX=0.5;exitY=0;exitDx=0;exitDy=0;elbow=vertical;" edge="1" parent="1" source="YdTmAqoiLgCzOXmf9878-1">
                    <mxGeometry width="100" height="100" relative="1" as="geometry">
                        <mxPoint x="225" y="321" as="sourcePoint"/>
                        <mxPoint x="292" y="212" as="targetPoint"/>
                        <Array as="points"/>
                    </mxGeometry>
                </mxCell>
                <mxCell id="58" value="" style="fontSize=12;html=1;endArrow=ERzeroToMany;startArrow=ERmandOne;fontFamily=Times New Roman;exitX=1;exitY=0.5;exitDx=0;exitDy=0;entryX=0;entryY=0.5;entryDx=0;entryDy=0;edgeStyle=elbowEdgeStyle;" edge="1" parent="1" source="YdTmAqoiLgCzOXmf9878-110" target="38">
                    <mxGeometry width="100" height="100" relative="1" as="geometry">
                        <mxPoint x="1076" y="249" as="sourcePoint"/>
                        <mxPoint x="1017.0000000000005" y="249" as="targetPoint"/>
                    </mxGeometry>
                </mxCell>
                <mxCell id="60" value="" style="fontSize=12;html=1;endArrow=ERzeroToMany;startArrow=ERmandOne;fontFamily=Times New Roman;exitX=0.346;exitY=0.963;exitDx=0;exitDy=0;elbow=vertical;entryX=0.5;entryY=0;entryDx=0;entryDy=0;exitPerimeter=0;edgeStyle=elbowEdgeStyle;" edge="1" parent="1" source="20" target="YdTmAqoiLgCzOXmf9878-137">
                    <mxGeometry width="100" height="100" relative="1" as="geometry">
                        <mxPoint x="808" y="184" as="sourcePoint"/>
                        <mxPoint x="1337" y="638" as="targetPoint"/>
                    </mxGeometry>
                </mxCell>
                <mxCell id="61" value="" style="fontSize=12;html=1;endArrow=ERzeroToMany;startArrow=ERmandOne;fontFamily=Times New Roman;exitX=0;exitY=0.5;exitDx=0;exitDy=0;entryX=1;entryY=0.5;entryDx=0;entryDy=0;edgeStyle=elbowEdgeStyle;" edge="1" parent="1" source="17" target="YdTmAqoiLgCzOXmf9878-114">
                    <mxGeometry width="100" height="100" relative="1" as="geometry">
                        <mxPoint x="787.1120000000001" y="519.8899999999999" as="sourcePoint"/>
                        <mxPoint x="835.5" y="576" as="targetPoint"/>
                        <Array as="points">
                            <mxPoint x="659" y="553"/>
                        </Array>
                    </mxGeometry>
                </mxCell>
                <mxCell id="62" value="" style="fontSize=12;html=1;endArrow=ERzeroToMany;startArrow=ERmandOne;fontFamily=Times New Roman;edgeStyle=elbowEdgeStyle;entryX=0;entryY=0.5;entryDx=0;entryDy=0;exitX=1;exitY=0.5;exitDx=0;exitDy=0;" edge="1" parent="1" source="29" target="YdTmAqoiLgCzOXmf9878-114">
                    <mxGeometry width="100" height="100" relative="1" as="geometry">
                        <mxPoint x="312" y="455" as="sourcePoint"/>
                        <mxPoint x="282" y="455" as="targetPoint"/>
                        <Array as="points">
                            <mxPoint x="344" y="538"/>
                        </Array>
                    </mxGeometry>
                </mxCell>
                <mxCell id="63" value="" style="fontSize=12;html=1;endArrow=ERzeroToMany;startArrow=ERmandOne;fontFamily=Times New Roman;edgeStyle=elbowEdgeStyle;exitX=0.663;exitY=1.065;exitDx=0;exitDy=0;exitPerimeter=0;entryX=0.5;entryY=0;entryDx=0;entryDy=0;elbow=vertical;" edge="1" parent="1" source="11" target="YdTmAqoiLgCzOXmf9878-47">
                    <mxGeometry width="100" height="100" relative="1" as="geometry">
                        <mxPoint x="333" y="470" as="sourcePoint"/>
                        <mxPoint x="187" y="270" as="targetPoint"/>
                    </mxGeometry>
                </mxCell>
                <mxCell id="64" value="" style="fontSize=12;html=1;endArrow=ERzeroToMany;startArrow=ERmandOne;fontFamily=Times New Roman;edgeStyle=elbowEdgeStyle;exitX=0;exitY=0.5;exitDx=0;exitDy=0;" edge="1" parent="1" source="8">
                    <mxGeometry width="100" height="100" relative="1" as="geometry">
                        <mxPoint x="18.49900000000025" y="210.99999999999983" as="sourcePoint"/>
                        <mxPoint x="50" y="807" as="targetPoint"/>
                        <Array as="points">
                            <mxPoint x="25" y="493"/>
                        </Array>
                    </mxGeometry>
                </mxCell>
                <mxCell id="66" value="" style="fontSize=12;html=1;endArrow=ERzeroToMany;startArrow=ERmandOne;fontFamily=Times New Roman;edgeStyle=elbowEdgeStyle;exitX=0;exitY=0.5;exitDx=0;exitDy=0;entryX=1;entryY=0.5;entryDx=0;entryDy=0;" edge="1" parent="1" source="YdTmAqoiLgCzOXmf9878-192" target="YdTmAqoiLgCzOXmf9878-262">
                    <mxGeometry width="100" height="100" relative="1" as="geometry">
                        <mxPoint x="498.0000000000002" y="843" as="sourcePoint"/>
                        <mxPoint x="498.0000000000002" y="1483.9999999999998" as="targetPoint"/>
                        <Array as="points">
                            <mxPoint x="350" y="758"/>
                        </Array>
                    </mxGeometry>
                </mxCell>
                <mxCell id="67" value="" style="fontSize=12;html=1;endArrow=ERzeroToMany;startArrow=ERmandOne;fontFamily=Times New Roman;edgeStyle=elbowEdgeStyle;exitX=0.5;exitY=0;exitDx=0;exitDy=0;entryX=0.24;entryY=1.111;entryDx=0;entryDy=0;entryPerimeter=0;elbow=vertical;" edge="1" parent="1" source="YdTmAqoiLgCzOXmf9878-201" target="YdTmAqoiLgCzOXmf9878-265">
                    <mxGeometry width="100" height="100" relative="1" as="geometry">
                        <mxPoint x="495" y="1013.0000000000002" as="sourcePoint"/>
                        <mxPoint x="74.00000000000045" y="884" as="targetPoint"/>
                    </mxGeometry>
                </mxCell>
                <mxCell id="68" value="" style="edgeStyle=elbowEdgeStyle;fontSize=12;html=1;endArrow=ERoneToMany;startArrow=ERmandOne;fontFamily=Times New Roman;entryX=0.202;entryY=1.167;entryDx=0;entryDy=0;exitX=0.928;exitY=1.145;exitDx=0;exitDy=0;entryPerimeter=0;elbow=vertical;exitPerimeter=0;" edge="1" parent="1" source="YdTmAqoiLgCzOXmf9878-205" target="YdTmAqoiLgCzOXmf9878-221">
                    <mxGeometry width="100" height="100" relative="1" as="geometry">
                        <mxPoint x="508" y="1018" as="sourcePoint"/>
                        <mxPoint x="693" y="296" as="targetPoint"/>
                        <Array as="points">
                            <mxPoint x="688" y="918"/>
                        </Array>
                    </mxGeometry>
                </mxCell>
                <mxCell id="69" value="" style="edgeStyle=elbowEdgeStyle;fontSize=12;html=1;endArrow=ERoneToMany;startArrow=ERmandOne;fontFamily=Times New Roman;entryX=0;entryY=0.5;entryDx=0;entryDy=0;exitX=1;exitY=0.5;exitDx=0;exitDy=0;" edge="1" parent="1" source="41" target="YdTmAqoiLgCzOXmf9878-218">
                    <mxGeometry width="100" height="100" relative="1" as="geometry">
                        <mxPoint x="347.00000000000017" y="978.9999999999999" as="sourcePoint"/>
                        <mxPoint x="1078.64" y="995.6600000000002" as="targetPoint"/>
                    </mxGeometry>
                </mxCell>
                <mxCell id="70" value="" style="fontSize=12;html=1;endArrow=ERzeroToMany;startArrow=ERmandOne;fontFamily=Times New Roman;exitX=1;exitY=0.5;exitDx=0;exitDy=0;entryX=0;entryY=0.5;entryDx=0;entryDy=0;edgeStyle=elbowEdgeStyle;" edge="1" parent="1" source="YdTmAqoiLgCzOXmf9878-192" target="YdTmAqoiLgCzOXmf9878-237">
                    <mxGeometry width="100" height="100" relative="1" as="geometry">
                        <mxPoint x="1078" y="936" as="sourcePoint"/>
                        <mxPoint x="1012" y="1076.9999999999998" as="targetPoint"/>
                    </mxGeometry>
                </mxCell>
                <mxCell id="71" value="" style="edgeStyle=elbowEdgeStyle;fontSize=12;html=1;endArrow=ERoneToMany;startArrow=ERmandOne;fontFamily=Times New Roman;exitX=0.362;exitY=1.037;exitDx=0;exitDy=0;entryX=0.75;entryY=0;entryDx=0;entryDy=0;exitPerimeter=0;elbow=vertical;" edge="1" parent="1" source="44" target="YdTmAqoiLgCzOXmf9878-227">
                    <mxGeometry width="100" height="100" relative="1" as="geometry">
                        <mxPoint x="656" y="326" as="sourcePoint"/>
                        <mxPoint x="1318" y="381" as="targetPoint"/>
                    </mxGeometry>
                </mxCell>
                <mxCell id="72" value="" style="edgeStyle=elbowEdgeStyle;fontSize=12;html=1;endArrow=ERoneToMany;startArrow=ERmandOne;fontFamily=Times New Roman;exitX=0.362;exitY=1.037;exitDx=0;exitDy=0;entryX=0.75;entryY=0;entryDx=0;entryDy=0;exitPerimeter=0;elbow=vertical;" edge="1" parent="1" target="YdTmAqoiLgCzOXmf9878-178">
                    <mxGeometry width="100" height="100" relative="1" as="geometry">
                        <mxPoint x="1065.4019999999998" y="210.9999999999999" as="sourcePoint"/>
                        <mxPoint x="1160.59" y="271.89" as="targetPoint"/>
                    </mxGeometry>
                </mxCell>
                <mxCell id="73" value="" style="fontSize=12;html=1;endArrow=ERzeroToMany;startArrow=ERmandOne;fontFamily=Times New Roman;exitX=0;exitY=0.5;exitDx=0;exitDy=0;entryX=1;entryY=0.5;entryDx=0;entryDy=0;edgeStyle=elbowEdgeStyle;" edge="1" parent="1" source="YdTmAqoiLgCzOXmf9878-98" target="YdTmAqoiLgCzOXmf9878-269">
                    <mxGeometry width="100" height="100" relative="1" as="geometry">
                        <mxPoint x="683" y="341" as="sourcePoint"/>
                        <mxPoint x="617" y="481.9999999999998" as="targetPoint"/>
                    </mxGeometry>
                </mxCell>
            </root>
        </mxGraphModel>
    </diagram>
</mxfile>